<?xml version="1.0" encoding="UTF-8"?>
<svg width="32px" height="32px" viewBox="0 0 32 32" version="1.1" xmlns="http://www.w3.org/2000/svg" xmlns:xlink="http://www.w3.org/1999/xlink">
    <title>动作区域</title>
    <g id="页面-1" stroke="none" stroke-width="1" fill="none" fill-rule="evenodd">
        <g id="主页——配置（主体1）" transform="translate(-632.000000, -56.000000)" fill="#5A5A5A" fill-rule="nonzero">
            <g id="工具栏" transform="translate(376.000000, 48.000000)">
                <g id="动作区域" transform="translate(256.000000, 8.000000)">
                    <g id="框选" transform="translate(8.000000, 8.000000)">
                        <rect id="矩形" opacity="0" x="0" y="0" width="16.0004581" height="16.0004581"></rect>
                        <path d="M4.00011454,14.6670918 L4.00011454,15.3337672 C4.00011454,15.7019704 3.70162682,16.0004581 3.33342357,16.0004581 L0.666690965,16.0004581 C0.298487712,16.0004581 0,15.7019704 0,15.3337672 L0,12.6670346 C0,12.2988313 0.298487712,12.0003436 0.666690965,12.0003436 L1.3333663,12.0003436 L1.3333663,4.00011454 L0.666690965,4.00011454 C0.298487712,4.00011454 0,3.70162682 0,3.33342357 L0,0.666690965 C0,0.298487712 0.298487712,0 0.666690965,0 L3.33342357,0 C3.70162682,0 4.00011454,0.298487712 4.00011454,0.666690965 L4.00011454,1.3333663 L12.0003436,1.3333663 L12.0003436,0.666690965 C12.0003436,0.298487712 12.2988313,0 12.6670346,0 L15.3337672,0 C15.7019704,0 16.0004581,0.298487712 16.0004581,0.666690965 L16.0004581,3.33342357 C16.0004581,3.70162682 15.7019704,4.00011454 15.3337672,4.00011454 L14.6670918,4.00011454 L14.6670918,12.0003436 L15.3337672,12.0003436 C15.5105846,12.0003436 15.6801601,12.0705841 15.8051889,12.1956129 C15.9302177,12.3206417 16.0004581,12.4902171 16.0004581,12.6670346 L16.0004581,15.3337672 C16.0004581,15.7019704 15.7019704,16.0004581 15.3337672,16.0004581 L12.6670346,16.0004581 C12.2988313,16.0004581 12.0003436,15.7019704 12.0003436,15.3337672 L12.0003436,14.6670918 L4.00011454,14.6670918 Z M4.00011454,13.3337099 L12.0003436,13.3337099 L12.0003436,12.6670346 C12.0003436,12.2988313 12.2988313,12.0003436 12.6670346,12.0003436 L13.3337099,12.0003436 L13.3337099,4.00011454 L12.6670346,4.00011454 C12.2988313,4.00011454 12.0003436,3.70162682 12.0003436,3.33342357 L12.0003436,2.66674823 L4.00011454,2.66674823 L4.00011454,3.33342357 C4.00011454,3.70162682 3.70162682,4.00011454 3.33342357,4.00011454 L2.66674823,4.00011454 L2.66674823,12.0003436 L3.33342357,12.0003436 C3.70162682,12.0003436 4.00011454,12.2988313 4.00011454,12.6670346 L4.00011454,13.3337099 Z M1.3333663,1.3333663 L1.3333663,2.66674823 L2.66674823,2.66674823 L2.66674823,1.3333663 L1.3333663,1.3333663 L1.3333663,1.3333663 Z M1.3333663,13.3337099 L1.3333663,14.6670918 L2.66674823,14.6670918 L2.66674823,13.3337099 L1.3333663,13.3337099 Z M13.3337099,1.3333663 L13.3337099,2.66674823 L14.6670918,2.66674823 L14.6670918,1.3333663 L13.3337099,1.3333663 L13.3337099,1.3333663 Z M13.3337099,13.3337099 L13.3337099,14.6670918 L14.6670918,14.6670918 L14.6670918,13.3337099 L13.3337099,13.3337099 L13.3337099,13.3337099 Z" id="形状"></path>
                    </g>
                </g>
            </g>
        </g>
    </g>
</svg>