<?xml version="1.0" encoding="UTF-8"?>
<svg width="32px" height="32px" viewBox="0 0 32 32" version="1.1" xmlns="http://www.w3.org/2000/svg" xmlns:xlink="http://www.w3.org/1999/xlink">
    <title>添加点位</title>
    <g id="视频库" stroke="none" stroke-width="1" fill="none" fill-rule="evenodd">
        <g id="视频库——未选点位（已识别）" transform="translate(-594.000000, -56.000000)" fill="#5A5A5A" fill-rule="nonzero">
            <g id="工具栏" transform="translate(0.000000, 48.000000)">
                <g id="编组-3" transform="translate(296.000000, 8.000000)">
                    <g id="添加点位" transform="translate(298.000000, 0.000000)">
                        <path d="M11.7883825,9.8089948 C14.2002467,7.39713057 18.110593,7.39700709 20.5225775,9.80859227 C22.9349054,12.2209203 22.9349054,16.1312646 20.5225775,18.5435926 L16.6081495,22.4580211 L16.677,22.459 L16.6437275,22.4935989 L19.345,22.493 L23.2557305,22.5439136 C23.483014,22.5387554 23.6966402,22.6389796 23.8372803,22.8111114 L23.9012435,22.9030147 C24.0350174,23.1307144 24.0350174,23.4129971 23.9012435,23.6406968 C23.7674695,23.8683966 23.5208945,24.0058158 23.2568745,23.999811 L8.74584346,23.9997979 C8.48067935,24.0058158 8.23410441,23.8683966 8.10033046,23.6406968 C7.96655651,23.4129971 7.96655651,23.1307144 8.10033046,22.9030147 C8.23410441,22.6753149 8.4806794,22.5378957 8.74469946,22.5439006 L15.6672335,22.5439136 L15.619,22.493 L15.6672335,22.4935989 L14.064,20.89 L11.7883845,18.5431919 C9.43675581,16.1919526 9.37796493,12.41552 11.6120104,9.99265262 Z M19.4932695,10.8383107 C17.6502381,8.99527932 14.6611287,8.99527932 12.8176905,10.8383107 C10.9746676,12.6817404 10.9746676,15.6704445 12.8176905,17.5138742 L14.061,18.686 L16.1554805,20.7805082 L16.216,20.719 L16.3199024,20.816086 L19.4932655,17.5138781 C21.3362929,15.6708507 21.336293,12.6817411 19.4932695,10.8383107 Z M15.5801235,11.5971985 L17.0285175,11.6447413 L17.0289305,13.5429412 L19.0249875,13.5932558 L18.9746735,15.0994548 L17.0788425,15.0491402 L17.0285285,17.0451975 L15.5223295,16.9948829 L15.5726435,15.0994548 L13.5765865,15.0491402 L13.6269005,13.5429412 L15.5223295,13.5932558 L15.531,13.23 L15.5801235,11.5971985 Z" id="形状结合"></path>
                    </g>
                </g>
            </g>
        </g>
    </g>
</svg>