<?xml version="1.0" encoding="UTF-8"?>
<svg width="16px" height="16px" viewBox="0 0 16 16" version="1.1" xmlns="http://www.w3.org/2000/svg" xmlns:xlink="http://www.w3.org/1999/xlink">
    <title>一键清除</title>
    <g id="页面-1" stroke="none" stroke-width="1" fill="none" fill-rule="evenodd">
        <g id="主页——配置（主体1）" transform="translate(-1880.000000, -160.000000)" fill="#5A5A5A" fill-rule="nonzero">
            <g id="一键清除" transform="translate(1880.000000, 160.000000)">
                <path d="M13.0957601,0.0607472986 C13.3672626,0.201305091 13.4796084,0.538643758 13.3391761,0.819759325 L10.638,6.041 L14.2285808,8.03505889 C14.5749806,8.23183979 14.8277588,8.55043744 14.9401046,8.93462871 C15.0524505,9.31881999 15.0056397,9.7217523 14.8090345,10.077832 C14.6124292,10.4245412 14.2941159,10.6775453 13.9102676,10.7899915 C13.7698352,10.8274736 13.6294029,10.8462146 13.4889706,10.8462146 C13.2361924,10.8462146 12.9927764,10.780621 12.7680847,10.6588042 L12,10.231 L12.0003879,14.3226771 C12.0003879,14.6131632 11.9254907,14.9036493 11.7850584,15.1566533 C11.5603667,15.5502151 11.2046048,15.8313307 10.7645835,15.9531474 C10.614789,15.9812589 10.4649945,16 10.3058379,16 C10.0156111,16 9.73474642,15.9250358 9.48196824,15.7844781 L1.85181188,11.4646688 C1.61775801,11.3334816 1.42115276,11.1460712 1.27135828,10.9211787 C1.02794226,10.546358 0.943682855,10.0965731 1.0373044,9.65615867 C1.13092594,9.21574428 1.38370413,8.84092353 1.7675525,8.58791952 L5.109,6.405 L4.41704237,6.02039733 C4.07064264,5.82361644 3.81786444,5.50501879 3.70551859,5.12082751 C3.59317272,4.73663624 3.63998351,4.33370393 3.83658876,3.97762421 C4.03319401,3.63091502 4.35150729,3.37791099 4.73535565,3.26546476 C5.119204,3.15301852 5.52177666,3.19987113 5.87753855,3.39665202 L9.652,5.493 L12.3374255,0.304380782 C12.4778579,0.0326357401 12.8148954,-0.0798104937 13.0957601,0.0607472986 Z M6.19585183,7.12611857 C6.09286813,7.12611857 5.98988442,7.16360065 5.90562502,7.21982375 L2.37609257,9.52497141 C2.25438456,9.60930608 2.160763,9.73112282 2.13267653,9.88105112 C2.10459007,10.0309794 2.13267653,10.1809077 2.20757377,10.3027245 C2.25438455,10.3776886 2.31991964,10.4432823 2.40417904,10.4807643 L4.51987161,11.6783875 C4.53447505,11.6163542 4.55966103,11.5566827 4.59492331,11.5021509 L5.84945209,9.56245349 C6.01797087,9.30007896 6.36437062,9.22511481 6.62651096,9.39378414 C6.88865131,9.56245347 6.96354854,9.90916268 6.79502974,10.1715372 L5.54050097,12.1112346 C5.51769743,12.1485828 5.49076261,12.1822555 5.46071292,12.2120492 L6.94326022,13.050609 C6.95351057,12.9670478 6.98250724,12.8860522 7.02908362,12.8140236 L8.2836124,10.8743261 C8.45213118,10.6119516 8.79853093,10.5369875 9.06067127,10.7056568 C9.32281162,10.8743261 9.39770885,11.2210353 9.22919005,11.4834099 L7.97466128,13.4231073 C7.94107964,13.4781082 7.89853846,13.5251379 7.85028397,13.5635467 L10.0343354,14.8005736 C10.1654056,14.8755377 10.3152,14.8942787 10.4649945,14.8567967 C10.6054269,14.8193146 10.7271349,14.7256094 10.8020321,14.5944221 C10.8488429,14.5100875 10.8769293,14.4163823 10.8769293,14.3133066 L10.8769293,9.98412683 C10.8769293,9.88105112 10.8488429,9.78734594 10.8020321,9.70301127 C10.7552213,9.61867659 10.6803241,9.54371244 10.5960647,9.49685985 L6.48607863,7.20108272 C6.40181923,7.1448596 6.29883552,7.12611857 6.19585183,7.12611857 Z M5.13792831,4.33370393 C5.10047968,4.33370393 5.07239323,4.34307445 5.0349446,4.35244496 C4.94132306,4.38055652 4.85706366,4.44615014 4.81025288,4.53048482 C4.76344211,4.61481949 4.75407995,4.7178952 4.78216642,4.81160039 C4.81025288,4.90530557 4.87578796,4.98964024 4.96004736,5.03649284 L13.3110897,9.6655292 C13.3953491,9.71238179 13.4983328,9.72175232 13.5919543,9.69364076 C13.6855759,9.6655292 13.7698353,9.59993557 13.816646,9.5156009 C13.8634568,9.43126622 13.872819,9.32819052 13.8447325,9.23448533 C13.816646,9.14078015 13.7511109,9.05644547 13.6668515,9.00959286 L5.32517141,4.38055652 C5.26899848,4.35244496 5.2034634,4.33370393 5.13792831,4.33370393 Z" id="形状结合"></path>
            </g>
        </g>
    </g>
</svg>