<?xml version="1.0" encoding="UTF-8"?>
<svg width="128px" height="128px" viewBox="0 0 128 128" version="1.1" xmlns="http://www.w3.org/2000/svg" xmlns:xlink="http://www.w3.org/1999/xlink">
    <title>编组 7</title>
    <g id="视频库" stroke="none" stroke-width="1" fill="none" fill-rule="evenodd">
        <g id="编组-7">
            <rect id="矩形" fill="#FFFFFF" x="0" y="0" width="128" height="128" rx="24"></rect>
            <g id="编组" transform="translate(12.000000, 20.000000)" fill-rule="nonzero">
                <path d="M45.9532405,14.959931 C45.9532405,14.959931 55.6984813,23.196693 60.7660066,29.039866 C69.7936434,39.4238181 72.8323867,44.6421941 75.3041342,53.0637552 C79.3262608,66.6948923 72.0173302,71.6668694 72.0173302,71.6668694 C72.0173302,71.6668694 77.5898361,72.0540676 81.8777421,66.2284945 C84.7570178,62.3213125 83.8533682,50.8549654 82.7636731,45.9885879 C81.8212911,41.6818879 80.3079146,37.5183918 78.2631437,33.607045 C76.6773272,30.7470582 74.0815494,26.9542757 74.0815494,26.9542757 L92.0216519,24.9478849 L45.9532405,14.959931 Z" id="路径" fill="#2576FA"></path>
                <path d="M47.3352928,56.2405406 L52.2522098,57.0501368 L47.3352928,57.8509331 C45.9207991,58.0814133 44.8120821,59.1827028 44.5800474,60.5877205 L43.7738502,65.4804979 L42.9587937,60.5877205 C42.7278631,59.185375 41.6234601,58.0848319 40.2124076,57.8509331 L35.2866313,57.0501368 L40.2124076,56.2405406 C41.6220754,56.0102639 42.726964,54.9127773 42.9587937,53.5125532 L43.7738502,48.6197757 L44.5800474,53.5125532 C44.8129758,54.9154565 45.9221849,56.013692 47.3352928,56.2405406 L47.3352928,56.2405406 Z" id="路径" fill="#FFB600"></path>
                <path d="M60.2433073,0 C59.8003418,0 59.3573763,0 58.9321295,0 C80.908185,0.643701939 98.3037766,18.6744504 98.0159808,40.5109011 C97.7281851,62.3473519 79.8633603,79.9195877 57.8778716,79.991631 L58.5157419,79.771632 C58.5157419,79.771632 70.2188903,76.0404492 72.5223108,63.7997057 C74.471359,53.4949532 68.9785869,44.7829934 62.77707,37.0566291 C57.4812341,30.5814586 51.4191063,24.7638111 44.7217964,19.729509 C39.4062104,15.6463278 34.763932,12.5487421 34.763932,12.5487421 L0,4.91917731 C0,4.91917731 22.4672099,17.2919202 35.5789886,28.5998681 C48.6907672,39.9078159 57.833575,47.2733819 61.4304549,55.7829427 C65.0273347,64.2925034 63.6187044,68.9828818 60.3584784,71.8780684 C57.7006854,74.2804574 56.2566179,74.3860569 52.8635022,74.9580542 C47.9109407,75.6113338 42.872834,75.0710566 38.1747664,73.3828615 C35.4279655,72.4831635 32.8238598,71.2002037 30.4405888,69.5724791 C17.9670991,58.2633688 13.9175009,40.4274952 20.296679,24.8950852 C11.7260895,42.5570322 15.9546898,63.7207391 30.6660993,76.7929607 C45.3775088,89.8651822 67.0215756,91.6913347 83.7419187,81.2710719 C100.462262,70.8508092 108.223934,50.6987451 102.775177,31.8539582 C97.3264199,13.0091713 79.9821257,0.0192785884 60.2433073,0 L60.2433073,0 Z" id="路径" fill="#131C69"></path>
            </g>
        </g>
    </g>
</svg>