<?xml version="1.0" encoding="UTF-8"?>
<svg width="16px" height="16px" viewBox="0 0 16 16" version="1.1" xmlns="http://www.w3.org/2000/svg" xmlns:xlink="http://www.w3.org/1999/xlink">
    <title>编组 9 2</title>
    <g id="页面-1" stroke="none" stroke-width="1" fill="none" fill-rule="evenodd">
        <g id="主页——配置（主体1）备份" transform="translate(-400.000000, -882.000000)" fill="#5A5A5A" fill-rule="nonzero">
            <g id="信控" transform="translate(376.000000, 650.000000)">
                <g id="编组-33备份" transform="translate(16.000000, 217.000000)">
                    <g id="编组-39" transform="translate(6.000000, 15.000000)">
                        <g id="编组-9" transform="translate(2.000000, 0.000000)">
                            <path d="M4.50070981,0.0443740013 C5.62021992,-0.190857707 6.6719102,0.530694047 6.90799431,1.69817128 L7.06698469,2.46806925 L7.25390484,2.5854217 L7.36604431,2.55727728 C7.9890006,2.4289131 8.64057908,2.61715041 9.12170019,3.06502424 L9.29443605,3.08975556 C9.44300089,3.01518287 9.60544294,2.96153917 9.78861316,2.92476197 C10.4174852,2.78641498 11.0687131,2.97219931 11.5513887,3.42152023 L11.7208453,3.44784893 C11.8755215,3.37477567 12.0229242,3.32404011 12.1824396,3.2903267 C13.3121627,3.04605258 14.3816493,3.76804624 14.617583,4.93477959 L15.2625078,8.08755608 C15.5493118,9.47710608 15.6364197,10.3572921 15.5038712,11.2809303 L15.4844645,11.4649521 L15.3629868,12.6188092 C15.2709993,13.2179421 14.7898178,14.2085247 14.4746246,14.5701531 C13.6551823,15.5024814 11.9596379,16 10.2631485,16 C10.1016308,16 9.96834793,15.9947869 9.72965359,15.9814743 L9.67441623,15.9812371 C8.92558625,15.9089441 8.19501078,15.6344843 7.54825096,15.1745726 L2.11506418,11.5507289 L2.02089731,11.5250372 L1.33670544,11.0611148 C0.336997613,10.3811621 0.175221872,9.02598789 0.841221644,7.98916982 C1.11385515,7.56151699 1.61643956,7.23308457 2.1845157,7.10833231 C2.67826181,7.00398444 3.17416211,7.07218144 3.59258187,7.29971114 L3.88076035,7.4564178 L3.8154126,7.13496254 L2.88091701,2.53804059 C2.6539273,1.39865104 3.37976419,0.279907341 4.50070981,0.0443740013 Z M5.95540504,1.90008822 C5.83756191,1.29779337 5.27426117,0.908375853 4.69917908,1.03050321 L4.58263559,1.06261063 C4.0526283,1.23959327 3.72244052,1.78800976 3.83341717,2.34506132 L5.3204877,9.65092131 L3.17012041,8.23845746 C2.95060893,8.09521672 2.65958824,8.04893428 2.36675495,8.10337457 C2.04958706,8.17154305 1.76926155,8.33919808 1.63736607,8.5598829 C1.30622368,9.05822577 1.33262419,9.85333579 1.91672592,10.2473127 L2.61805472,10.7166935 L2.6381803,10.713857 L8.10379488,14.3568728 C8.60790773,14.717069 9.1760341,14.9331474 9.75490715,14.9823961 L9.81459057,14.9829464 C11.240543,15.1027741 13.0194532,14.7016872 13.7141187,13.908417 C13.9172388,13.6773145 14.2970546,12.8900007 14.3578604,12.4888582 L14.5362448,10.8501016 C14.5925473,10.4754758 14.6020172,10.1483726 14.5702811,9.80329799 C14.5530977,9.61645816 14.5243543,9.42450097 14.4787359,9.1783426 C14.4533437,9.04132564 14.3498051,8.51961148 14.3381154,8.45917397 L13.6555888,5.13640324 C13.6038499,4.83466806 13.4352035,4.57066639 13.19036,4.40307527 C12.9735688,4.2507142 12.6988281,4.20135796 12.4197758,4.2573865 C12.3637889,4.26667294 12.3232955,4.2802235 12.2433844,4.31231287 L12.1505915,4.48484678 L12.6271843,6.81145217 C12.6551015,6.93765904 12.6295206,7.06606366 12.5537193,7.18781957 C12.489298,7.30246134 12.380191,7.37857774 12.2564322,7.39928481 C11.9956315,7.46423423 11.7319907,7.28703921 11.6743302,7.01208163 L11.1511054,4.47952947 C10.8868903,4.01373008 10.4386489,3.80123339 10.0043684,3.90184359 C9.95742906,3.91120027 9.92070082,3.92410539 9.84173068,3.95581688 L9.74888748,4.12810391 L10.2348252,6.52037961 C10.2627928,6.64683336 10.2372119,6.77523798 10.1614106,6.89699389 C10.0904847,7.01091877 9.97846605,7.08776399 9.85477854,7.10845913 C9.72402324,7.13740352 9.59806595,7.1117471 9.48843689,7.03837546 C9.3765312,6.96808284 9.30271913,6.85693207 9.27231797,6.71959228 L8.76827047,4.22685976 L8.69358391,4.08492011 C8.4491076,3.66874477 8.01311471,3.46509426 7.56110525,3.55363587 C7.50257063,3.57185295 7.48620854,3.57690711 7.45982948,3.58352765 L7.34720724,3.76209542 L7.85183486,6.25756733 C7.90921604,6.53121226 7.73942634,6.78907734 7.46543147,6.84698588 C7.34759768,6.8747758 7.21319671,6.84779056 7.10547312,6.7756942 C6.99356744,6.70540159 6.91975536,6.59425081 6.88935421,6.45691102 L6.50682113,4.55536008 L6.41243075,4.14760851 Z" id="形状结合"></path>
                        </g>
                    </g>
                </g>
            </g>
        </g>
    </g>
</svg>