<?xml version="1.0" encoding="UTF-8"?>
<svg width="16px" height="16px" viewBox="0 0 16 16" version="1.1" xmlns="http://www.w3.org/2000/svg" xmlns:xlink="http://www.w3.org/1999/xlink">
    <title>取消</title>
    <g id="页面-1" stroke="none" stroke-width="1" fill="none" fill-rule="evenodd">
        <g id="主页——配置（主体1）备份" transform="translate(-400.000000, -974.000000)" fill-rule="nonzero">
            <g id="信控" transform="translate(376.000000, 650.000000)">
                <g id="编组-33备份" transform="translate(16.000000, 217.000000)">
                    <g id="编组-39" transform="translate(6.000000, 15.000000)">
                        <g id="取消" transform="translate(2.000000, 92.000000)">
                            <rect id="矩形" fill="#5A5A5A" opacity="0" x="0" y="0" width="16" height="16"></rect>
                            <path d="M8,0.5 C10.0710693,0.5 11.9460694,1.33946524 13.3033021,2.69669792 C14.6605348,4.05393061 15.5,5.92893066 15.5,8 C15.5,10.0710693 14.6605348,11.9460694 13.3033021,13.3033021 C11.9460694,14.6605348 10.0710693,15.5 8,15.5 C5.92893066,15.5 4.05393061,14.6605348 2.69669792,13.3033021 C1.33946524,11.9460694 0.5,10.0710693 0.5,8 C0.5,5.92893066 1.33946524,4.05393061 2.69669792,2.69669792 C4.05393061,1.33946524 5.92893066,0.5 8,0.5 Z" id="路径" stroke="#5A5A5A"></path>
                            <path d="M10.4307498,5.05169401 L10.5297847,5.06838072 C10.7265108,5.11990526 10.8801457,5.27354015 10.9316703,5.47026628 C10.9831948,5.6669924 10.9245956,5.87621355 10.7783835,6.01755703 L8.82766945,7.96826095 L10.7777799,9.9890821 C10.9975091,10.2088743 10.9975091,10.5651693 10.7777746,10.7849795 C10.6723057,10.8906305 10.5291498,10.95 10.3798654,10.95 C10.2305809,10.95 10.087425,10.8906305 9.98195615,10.7849795 L8.03181245,8.83513737 L6.01097186,10.784946 C5.79118639,11.0048111 5.43479433,11.0048757 5.21493854,10.7850996 C4.99508276,10.5653235 4.99501816,10.2089315 5.21479426,9.98907569 L7.16489832,8.03897163 L5.21478785,6.01815048 C4.99501458,5.7983007 4.9950766,5.44190584 5.21493252,5.22212641 C5.43478845,5.00234699 5.79118331,5.002409 6.01096274,5.22226492 L7.96107937,7.17238155 L9.98190052,5.22227107 C10.1238374,5.07545544 10.3330586,5.01685617 10.5297847,5.06838072 Z" id="形状结合" fill="#5A5A5A"></path>
                        </g>
                    </g>
                </g>
            </g>
        </g>
    </g>
</svg>