<?xml version="1.0" encoding="UTF-8"?>
<svg width="32px" height="32px" viewBox="0 0 32 32" version="1.1" xmlns="http://www.w3.org/2000/svg" xmlns:xlink="http://www.w3.org/1999/xlink">
    <title>添加点位备份 6</title>
    <g id="页面-1" stroke="none" stroke-width="1" fill="none" fill-rule="evenodd">
        <g id="主页——配置（主体1）" transform="translate(-873.000000, -56.000000)" fill-rule="nonzero" stroke="#BEBEBE">
            <g id="工具栏" transform="translate(376.000000, 48.000000)">
                <g id="添加点位备份-6" transform="translate(497.000000, 8.000000)">
                    <g id="编组-5" transform="translate(8.000000, 8.000000)">
                        <path d="M8,0.725 C10.0089373,0.725 11.8276873,1.53928123 13.1442031,2.85579695 C14.4607188,4.17231266 15.275,5.99106274 15.275,8 C15.275,10.0089373 14.4607188,11.8276873 13.1442031,13.1442031 C11.8276873,14.4607188 10.0089373,15.275 8,15.275 C5.99106274,15.275 4.17231266,14.4607188 2.85579695,13.1442031 C1.53928123,11.8276873 0.725,10.0089373 0.725,8 C0.725,5.99106274 1.53928123,4.17231266 2.85579695,2.85579695 C4.17231266,1.53928123 5.99106274,0.725 8,0.725 Z" id="路径" stroke-width="1.45"></path>
                        <path d="M10.3807505,5.00168445 L10.4797855,5.01837116 C10.6765116,5.0698957 10.8301465,5.2235306 10.8816711,5.42025672 C10.9331956,5.61698285 10.8745963,5.826204 10.7283843,5.96754748 L8.77767022,7.9182514 L10.7277807,9.93907255 C10.9475099,10.1588648 10.9475099,10.5151597 10.7277753,10.7349699 C10.6223064,10.840621 10.4791505,10.8999904 10.3298661,10.8999904 C10.1805817,10.8999904 10.0374258,10.840621 9.93195692,10.7349699 L7.98181322,8.78512782 L5.96097262,10.7349364 C5.74118716,10.9548016 5.3847951,10.9548662 5.16493931,10.7350901 C4.94508353,10.515314 4.94501893,10.1589219 5.16479502,9.93906614 L7.11489909,7.98896208 L5.16478862,5.96814092 C4.94501535,5.74829115 4.94507737,5.39189628 5.16493329,5.17211686 C5.38478922,4.95233744 5.74118408,4.95239945 5.96096351,5.17225537 L7.91108014,7.12237199 L9.93190129,5.17226152 C10.0738382,5.02544589 10.2830594,4.96684662 10.4797855,5.01837116 Z" id="形状结合" stroke-width="0.2" fill="#BEBEBE"></path>
                    </g>
                </g>
            </g>
        </g>
    </g>
</svg>