<?xml version="1.0" encoding="UTF-8"?>
<svg width="32px" height="32px" viewBox="0 0 32 32" version="1.1" xmlns="http://www.w3.org/2000/svg" xmlns:xlink="http://www.w3.org/1999/xlink">
    <title>圆选</title>
    <g id="页面-2" stroke="none" stroke-width="1" fill="none" fill-rule="evenodd">
        <g id="视频库——未选点位（交互1）" transform="translate(-552.000000, -56.000000)" fill="#5A5A5A" fill-rule="nonzero">
            <g id="圆选" transform="translate(552.000000, 56.000000)">
                <path d="M13.3432015,11.8629426 L13.464,11.912 L13.4476176,11.9047449 L23.1658157,15.7928 C23.8084469,16.0488788 24.1679081,16.8071362 23.9222823,17.4178665 C23.8093733,17.7892831 23.5189316,18.080092 23.1552975,18.1909981 L19.3791276,19.4818956 L18.0843206,23.1661099 C17.836692,23.7851813 17.2416592,24.1138954 16.5895682,23.9596016 L16.4584752,23.9222456 C16.0872769,23.8091918 15.7967692,23.5186841 15.690871,23.1677192 L11.8022396,13.5496897 C11.5508792,12.9188993 11.9092068,12.1626982 12.5332946,11.9129916 C12.7673411,11.7959683 13.0855522,11.7792507 13.3432015,11.8629426 Z M11.579762,20.7657058 C11.9787009,21.1359375 12.4223083,21.4550704 12.8998875,21.7148174 L12.1830323,23.0324359 C11.5928096,22.7114051 11.0475017,22.3182362 10.558946,21.8647668 L11.579762,20.7657058 Z M13.3865922,13.4864517 L16.8167152,21.9745033 L17.9345938,18.7092181 C18.0352049,18.3794037 18.2758323,18.1133093 18.5870574,17.9792504 L18.7069404,17.9353008 L21.947357,16.9107576 L13.3865922,13.4864517 Z M9.82512932,18.036944 C9.99534375,18.5532968 10.2300737,19.0453018 10.5231633,19.5024427 L9.26091686,20.3128343 C8.90276779,19.754363 8.61213965,19.1484478 8.40055468,18.506611 L9.82512932,18.036944 Z M8.13653175,14.5205167 L9.61086951,14.796793 C9.53848091,15.1841394 9.501164,15.5798973 9.50003281,15.9770754 C9.5,16.1445808 9.50470619,16.2910136 9.51451095,16.4386564 L8.01778104,16.5376499 C8.00598959,16.3599573 8,16.1806781 8,16 C8,15.494519 8.04688084,14.9999877 8.13653175,14.5205167 Z M9.80668123,10.935747 L10.9676288,11.8855897 C10.6229762,12.3065225 10.3322107,12.7687682 10.1028953,13.261559 L8.74315982,12.6282189 C9.0269759,12.0184171 9.38539268,11.4503501 9.80668123,10.935747 Z M22.1532784,10.8872263 C22.5789295,11.3989379 22.9419584,11.9645869 23.2306022,12.5724104 L21.8756102,13.2158363 C21.6424494,12.7248542 21.3480824,12.2648412 21.0001643,11.8465635 L22.1532784,10.8872263 Z M13.0279779,8.57025362 L13.5860929,9.96255679 C13.0814865,10.1645345 12.6044798,10.4295268 12.1657841,10.7506277 L11.2805432,9.5396987 C11.8163044,9.14764152 12.4026565,8.82061924 13.0279779,8.57025362 Z M18.9119578,8.54648799 C19.5395541,8.79186306 20.1285775,9.11421616 20.6674177,9.50193685 L19.7918679,10.7198913 C19.3506306,10.4023317 18.8715229,10.1412001 18.3652409,9.94330616 L18.9119578,8.54648799 Z M16,8 C16.3351845,8 16.6655544,8.02061359 16.9899112,8.0606422 L16.80591,9.54931398 C16.5447749,9.51709904 16.2804391,9.50056354 16.0167656,9.50001734 C15.7210708,9.5 15.442892,9.51749148 15.1667502,9.55274554 L14.9759682,8.0649274 C15.3112677,8.02208553 15.6530547,8 16,8 Z" id="形状结合"></path>
            </g>
        </g>
    </g>
</svg>