<?xml version="1.0" encoding="UTF-8"?>
<svg width="16px" height="16px" viewBox="0 0 16 16" version="1.1" xmlns="http://www.w3.org/2000/svg" xmlns:xlink="http://www.w3.org/1999/xlink">
    <title>删除</title>
    <g id="页面-1" stroke="none" stroke-width="1" fill="none" fill-rule="evenodd">
        <g id="主页——配置（主体1）备份" transform="translate(-400.000000, -821.000000)" fill="#FF4D4F" fill-rule="nonzero">
            <g id="信控" transform="translate(376.000000, 650.000000)">
                <g id="编组-33" transform="translate(16.000000, 64.000000)">
                    <g id="编组-42" transform="translate(6.000000, 15.000000)">
                        <g id="删除" transform="translate(2.000000, 92.000000)">
                            <rect id="矩形" opacity="0" x="0" y="0" width="16" height="16"></rect>
                            <path d="M14.9647351,1.86666667 L11.7488619,1.86666667 L11.7488619,0.533333333 C11.7488619,0.238781467 11.5090958,0 11.2133294,0 L4.78693834,0 C4.49117186,0 4.25140576,0.238781467 4.25140576,0.533333333 L4.25140576,1.86666667 L1.03553258,1.86666667 C0.739766105,1.86666667 0.5,2.10544813 0.5,2.4 C0.5,2.69455187 0.739766105,2.93333333 1.03553258,2.93333333 L1.60051946,2.93333333 L2.90454131,14.5776 C2.99536097,15.3873999 3.6827687,16 4.50096394,16 L11.4987682,16 C12.3170749,16 13.004652,15.3874831 13.0957264,14.5776 L14.3997482,2.93333333 L14.9641996,2.93333333 C15.1555269,2.9334286 15.3323718,2.83186388 15.4281183,2.66689761 C15.5238648,2.50193133 15.5239669,2.29862582 15.4283861,2.13356427 C15.3328052,1.96850273 15.1560625,1.86676194 14.9647351,1.86666667 Z M5.32247093,1.06666667 L10.6777968,1.06666667 L10.6777968,1.86666667 L5.32247093,1.86666667 L5.32247093,1.06666667 Z M12.0316231,14.4592 C12.0013424,14.7292008 11.7721037,14.9333333 11.4993038,14.9333333 L4.50096394,14.9333333 C4.22816401,14.9333333 3.99892534,14.7292008 3.96864455,14.4592 L2.67801102,2.93333333 L13.3222567,2.93333333 L12.0316231,14.4592 L12.0316231,14.4592 Z M9.6067316,13.1488 C9.90249808,13.1488 10.1422642,12.9100185 10.1422642,12.6154667 L10.1422642,4.78506667 C10.1422642,4.4905148 9.90249808,4.25173333 9.6067316,4.25173333 C9.31096512,4.25173333 9.07119902,4.4905148 9.07119902,4.78506667 L9.07119902,12.6154667 C9.07119902,12.9100185 9.31096512,13.1488 9.6067316,13.1488 Z M6.66130239,13.1488 C6.95706887,13.1488 7.19683497,12.9100185 7.19683497,12.6154667 L7.19683497,4.78506667 C7.19683497,4.4905148 6.95706887,4.25173333 6.66130239,4.25173333 C6.36553591,4.25173333 6.1257698,4.4905148 6.1257698,4.78506667 L6.1257698,12.6154667 C6.1257698,12.9100185 6.36553591,13.1488 6.66130239,13.1488 Z" id="形状"></path>
                        </g>
                    </g>
                </g>
            </g>
        </g>
    </g>
</svg>