<?xml version="1.0" encoding="UTF-8"?>
<svg width="16px" height="16px" viewBox="0 0 16 16" version="1.1" xmlns="http://www.w3.org/2000/svg" xmlns:xlink="http://www.w3.org/1999/xlink">
    <title>删除</title>
    <g id="视频库" stroke="none" stroke-width="1" fill="none" fill-rule="evenodd">
        <g id="视频库——选中点位(视频转码中)" transform="translate(-544.000000, -698.000000)" fill="#FF4D4F" fill-rule="nonzero">
            <g id="详情栏" transform="translate(279.000000, 618.000000)">
                <g id="删除" transform="translate(265.000000, 80.000000)">
                    <rect id="矩形" opacity="0" x="0" y="0" width="16" height="16"></rect>
                    <path d="M14.0361038,2.63333333 L11.2490137,2.63333333 L11.2490137,1.46666667 C11.2490137,1.20893378 11.0412164,1 10.7848854,1 L5.21534656,1 C4.95901561,1 4.75121832,1.20893378 4.75121832,1.46666667 L4.75121832,2.63333333 L1.96412824,2.63333333 C1.70779729,2.63333333 1.5,2.84226712 1.5,3.1 C1.5,3.35773288 1.70779729,3.56666667 1.96412824,3.56666667 L2.45378353,3.56666667 L3.5839358,13.7554 C3.66264617,14.4639749 4.25839954,15 4.96750208,15 L11.0322658,15 C11.7414649,15 12.337365,14.4640477 12.4162962,13.7554 L13.5464485,3.56666667 L14.0356396,3.56666667 C14.2014567,3.56675003 14.3547222,3.47788089 14.4377025,3.33353541 C14.5206828,3.18918992 14.5207713,3.01129759 14.4379346,2.86686874 C14.3550979,2.72243989 14.2019208,2.6334167 14.0361038,2.63333333 Z M5.6794748,1.93333333 L10.3207572,1.93333333 L10.3207572,2.63333333 L5.6794748,2.63333333 L5.6794748,1.93333333 Z M11.4940734,13.6518 C11.46783,13.8880507 11.2691565,14.0666667 11.0327299,14.0666667 L4.96750208,14.0666667 C4.73107547,14.0666667 4.53240196,13.8880507 4.50615861,13.6518 L3.38760955,3.56666667 L12.6126225,3.56666667 L11.4940734,13.6518 L11.4940734,13.6518 Z M9.39250072,12.5052 C9.64883167,12.5052 9.85662896,12.2962662 9.85662896,12.0385333 L9.85662896,5.18693333 C9.85662896,4.92920045 9.64883167,4.72026667 9.39250072,4.72026667 C9.13616977,4.72026667 8.92837248,4.92920045 8.92837248,5.18693333 L8.92837248,12.0385333 C8.92837248,12.2962662 9.13616977,12.5052 9.39250072,12.5052 Z M6.8397954,12.5052 C7.09612635,12.5052 7.30392364,12.2962662 7.30392364,12.0385333 L7.30392364,5.18693333 C7.30392364,4.92920045 7.09612635,4.72026667 6.8397954,4.72026667 C6.58346445,4.72026667 6.37566716,4.92920045 6.37566716,5.18693333 L6.37566716,12.0385333 C6.37566716,12.2962662 6.58346445,12.5052 6.8397954,12.5052 Z" id="形状" stroke="#FF4D4F" stroke-width="0.3"></path>
                </g>
            </g>
        </g>
    </g>
</svg>