<?xml version="1.0" encoding="UTF-8"?>
<svg width="32px" height="32px" viewBox="0 0 32 32" version="1.1" xmlns="http://www.w3.org/2000/svg" xmlns:xlink="http://www.w3.org/1999/xlink">
    <title>检测线</title>
    <g id="页面-1" stroke="none" stroke-width="1" fill="none" fill-rule="evenodd">
        <g id="主页——配置（主体1）" transform="translate(-488.000000, -56.000000)" fill="#5A5A5A" fill-rule="nonzero">
            <g id="工具栏" transform="translate(376.000000, 48.000000)">
                <g id="检测线" transform="translate(112.000000, 8.000000)">
                    <g transform="translate(8.000000, 8.000000)" id="形状结合">
                        <path d="M14.3608563,0 C15.2658304,0 16,0.734169616 16,1.63914373 L15.9937534,1.78276772 C15.9275788,2.54008399 15.342959,3.15106639 14.5903435,3.2566478 L14.568,3.258 L12.4868502,10.1842202 L12.5122338,10.2045362 C12.8207757,10.4782014 13.0169361,10.8549533 13.0567181,11.2684533 L13.0642202,11.4251087 C13.0642202,12.3300464 12.3300352,13.0642202 11.4250765,13.0642202 C10.5201103,13.0642202 9.78594448,12.3300527 9.78594448,11.4251087 C9.78594448,11.2257726 9.82382362,11.0317972 9.89598346,10.8464555 L9.90629969,10.8212844 L5.23547401,6.06629969 L5.21436337,6.0777191 C5.07337561,6.1383982 4.92588859,6.17908638 4.77378209,6.19825373 L4.74519878,6.19938838 L2.69602446,13.1141284 L2.72281022,13.1362923 C3.0330776,13.4103177 3.23065412,13.7885848 3.27072956,14.20361 L3.27828746,14.3608357 C3.27828746,15.2658195 2.54412285,16 1.63914373,16 C0.734160663,16 0,15.2658214 0,14.3608357 C0,13.5382753 0.610018551,12.8555313 1.40966212,12.7433649 L1.42972477,12.7412844 L3.48770642,5.79327217 L3.46396927,5.77278786 C3.16816501,5.50003817 2.98090011,5.13100418 2.9429376,4.72767371 L2.93577982,4.57493821 C2.93577982,3.66996973 3.66996432,2.93577982 4.57493821,2.93577982 C5.47990756,2.93577982 6.21406728,3.66996519 6.21406728,4.57493821 C6.21406728,4.73778089 6.18992909,4.89736856 6.1432337,5.0500727 L6.128,5.091 L10.8496636,9.89553517 L10.8812771,9.88320213 C10.9799977,9.84855557 11.0820301,9.8234198 11.1865363,9.80819233 L11.2225076,9.80452599 L13.3029969,2.88391437 L13.2784856,2.86460058 C12.9676735,2.59163731 12.7694968,2.2124713 12.7292947,1.79665639 L12.7217125,1.63914373 C12.7217125,0.734166413 13.4558756,0 14.3608563,0 Z"></path>
                    </g>
                </g>
            </g>
        </g>
    </g>
</svg>