<?xml version="1.0" encoding="UTF-8"?>
<svg width="32px" height="32px" viewBox="0 0 32 32" version="1.1" xmlns="http://www.w3.org/2000/svg" xmlns:xlink="http://www.w3.org/1999/xlink">
    <title>添加点位备份 5</title>
    <g id="页面-1" stroke="none" stroke-width="1" fill="none" fill-rule="evenodd">
        <g id="主页——配置（主体1）" transform="translate(-825.000000, -56.000000)" fill-rule="nonzero" stroke="#BEBEBE">
            <g id="工具栏" transform="translate(376.000000, 48.000000)">
                <g id="添加点位备份-5" transform="translate(449.000000, 8.000000)">
                    <g id="编组-41" transform="translate(8.000000, 8.000000)">
                        <path d="M8,0.725 C10.0092645,0.725 11.827866,1.53922692 13.1442217,2.85558263 C14.4608323,4.17219317 15.275,5.99110764 15.275,8 C15.275,10.0086448 14.4605081,11.8273345 13.1439472,13.1438955 C11.827319,14.4605237 10.0085465,15.275 8,15.275 C5.99174096,15.275 4.17368991,14.4607362 2.85737126,13.1444176 C1.54067151,11.8277178 0.725965698,10.00868 0.725,8 C0.725,5.9913552 1.53949188,4.17266546 2.8560528,2.85610453 C4.17268103,1.5394763 5.99145346,0.725 8,0.725 Z" id="路径" stroke-width="1.45"></path>
                        <path d="M10.6968507,5.68683191 C10.8749756,5.5008966 11.1735941,5.49361281 11.35877,5.67102915 C11.5460746,5.84924037 11.5529448,6.14710308 11.3754781,6.33105706 L7.58305132,10.3112819 C7.49832532,10.3998059 7.38530254,10.4501924 7.26581023,10.4555631 L7.22280029,10.4553614 C7.09308411,10.4527269 6.96622357,10.3929228 6.87897988,10.2879716 L4.60069913,7.54719516 C4.43719032,7.34993498 4.46473014,7.05224508 4.66240655,6.88707189 C4.85926417,6.72388001 5.15691818,6.75141963 5.32207775,6.94910212 L7.12283749,9.11570677 L7.26648184,9.28853402 L7.42147127,9.12580347 Z" id="形状结合" stroke-width="0.5" fill="#BEBEBE"></path>
                    </g>
                </g>
            </g>
        </g>
    </g>
</svg>