<?xml version="1.0" encoding="UTF-8"?>
<svg width="16px" height="16px" viewBox="0 0 16 16" version="1.1" xmlns="http://www.w3.org/2000/svg" xmlns:xlink="http://www.w3.org/1999/xlink">
    <title>完成</title>
    <g id="页面-1" stroke="none" stroke-width="1" fill="none" fill-rule="evenodd">
        <g id="主页——配置（主体1）备份" transform="translate(-400.000000, -928.000000)" fill-rule="nonzero">
            <g id="信控" transform="translate(376.000000, 650.000000)">
                <g id="编组-33备份" transform="translate(16.000000, 217.000000)">
                    <g id="编组-39" transform="translate(6.000000, 15.000000)">
                        <g id="完成" transform="translate(2.000000, 46.000000)">
                            <rect id="矩形" fill="#5A5A5A" opacity="0" x="0" y="0" width="16" height="16"></rect>
                            <g id="编组-41" stroke="#5A5A5A">
                                <path d="M8,0.5 C10.0714084,0.5 11.9462532,1.33941602 13.3033207,2.69648361 C14.6606495,4.05381235 15.5,5.92897862 15.5,8 C15.5,10.0707683 14.660328,11.9457128 13.3030462,13.3029945 C11.9456955,14.6603452 10.0706661,15.5 8,15.5 C5.92961458,15.5 4.05531423,14.6605586 2.69827223,13.3035166 C1.34088196,11.9461263 0.500995571,10.070875 0.5,8 C0.5,5.92923173 1.33967205,4.05428723 2.69695378,2.6970055 C4.05430448,1.3396548 5.92933391,0.5 8,0.5 Z" id="路径"></path>
                                <path d="M10.6968507,5.68683191 C10.8749756,5.5008966 11.1735941,5.49361281 11.35877,5.67102915 C11.5460746,5.84924037 11.5529448,6.14710308 11.3754781,6.33105706 L7.58305132,10.3112819 C7.49832532,10.3998059 7.38530254,10.4501924 7.26581023,10.4555631 L7.22280029,10.4553614 C7.09308411,10.4527269 6.96622357,10.3929228 6.87897988,10.2879716 L4.60069913,7.54719516 C4.43719032,7.34993498 4.46473014,7.05224508 4.66240655,6.88707189 C4.85926417,6.72388001 5.15691818,6.75141963 5.32207775,6.94910212 L7.12283749,9.11570677 L7.26648184,9.28853402 L7.42147127,9.12580347 Z" id="形状结合" stroke-width="0.2" fill="#5A5A5A"></path>
                            </g>
                        </g>
                    </g>
                </g>
            </g>
        </g>
    </g>
</svg>