<?xml version="1.0" encoding="UTF-8"?>
<svg width="32px" height="32px" viewBox="0 0 32 32" version="1.1" xmlns="http://www.w3.org/2000/svg" xmlns:xlink="http://www.w3.org/1999/xlink">
    <title>添加点位备份 4</title>
    <g id="页面-1" stroke="none" stroke-width="1" fill="none" fill-rule="evenodd">
        <g id="主页——配置（主体1）" transform="translate(-777.000000, -56.000000)" fill="#BEBEBE" fill-rule="nonzero">
            <g id="工具栏" transform="translate(376.000000, 48.000000)">
                <g id="添加点位备份-4" transform="translate(401.000000, 8.000000)">
                    <path d="M17.1788194,9.29489085 C17.5546799,9.29489085 17.859375,9.59316796 17.859375,9.96111143 C17.859375,10.3290549 17.5546799,10.627332 17.1788194,10.627332 L10.6527778,10.627332 C10.4916947,10.627332 10.3611111,10.7551651 10.3611111,10.9128551 L10.3611111,21.3820357 C10.3611111,21.5397258 10.4916947,21.6675588 10.6527778,21.6675588 L21.3472222,21.6675588 C21.5083053,21.6675588 21.6388889,21.5397258 21.6388889,21.3820357 L21.6388889,14.4471553 C21.6388889,14.0792119 21.943584,13.7809347 22.3194444,13.7809347 C22.6953049,13.7809347 23,14.0792119 23,14.4471553 L23,21.3820357 C23,22.2756127 22.2600262,23 21.3472222,23 L10.6527778,23 C9.73997382,23 9,22.2756127 9,21.3820357 L9,10.9128551 C9,10.0192781 9.73997382,9.29489085 10.6527778,9.29489085 L17.1788194,9.29489085 Z M20.5986111,9 L22.7986735,11.1537211 L22.9361707,11.2883221 L22.7986694,11.422919 L14.7987388,19.2538661 L14.7100454,19.3035228 L12.4617988,19.8740887 C12.1687632,19.9484843 11.858256,19.8496721 11.6659206,19.6208178 C11.4735852,19.3919634 11.4343716,19.0746528 11.5653655,18.807592 L12.4966737,16.9312812 L20.4611181,9.13459688 L20.5986111,9 Z M20.5976389,10.8833511 L13.6144822,17.706406 L13.3361111,18.2745926 L14.0623611,18.0899543 L21.0108333,11.2878421 L20.5976389,10.8833511 Z" id="形状结合"></path>
                </g>
            </g>
        </g>
    </g>
</svg>