<?xml version="1.0" encoding="UTF-8"?>
<svg width="32px" height="32px" viewBox="0 0 32 32" version="1.1" xmlns="http://www.w3.org/2000/svg" xmlns:xlink="http://www.w3.org/1999/xlink">
    <title>添加点位备份 3</title>
    <g id="页面-1" stroke="none" stroke-width="1" fill="none" fill-rule="evenodd">
        <g id="主页——配置（主体1）" transform="translate(-729.000000, -56.000000)" fill="#BEBEBE">
            <g id="工具栏" transform="translate(376.000000, 48.000000)">
                <g id="添加点位备份-3" transform="translate(353.000000, 8.000000)">
                    <path d="M16,8 C16.4004064,8 16.725,8.32459356 16.725,8.725 L16.725,15.275 L23.275,15.275 C23.6754064,15.275 24,15.5995936 24,16 C24,16.4004064 23.6754064,16.725 23.275,16.725 L16.725,16.725 L16.725,23.275 C16.725,23.6754064 16.4004064,24 16,24 C15.5995936,24 15.275,23.6754064 15.275,23.275 L15.275,16.725 L8.725,16.725 C8.32459356,16.725 8,16.4004064 8,16 C8,15.5995936 8.32459356,15.275 8.725,15.275 L15.274,15.275 L15.275,8.725 C15.275,8.32459356 15.5995936,8 16,8 Z" id="形状结合"></path>
                </g>
            </g>
        </g>
    </g>
</svg>