<?xml version="1.0" encoding="UTF-8"?>
<svg width="16px" height="16px" viewBox="0 0 16 16" version="1.1" xmlns="http://www.w3.org/2000/svg" xmlns:xlink="http://www.w3.org/1999/xlink">
    <title>编辑</title>
    <g id="视频库" stroke="none" stroke-width="1" fill="none" fill-rule="evenodd">
        <g id="视频库——选中点位(视频转码中)" transform="translate(-512.000000, -698.000000)" fill="#5A5A5A" fill-rule="nonzero">
            <g id="详情栏" transform="translate(279.000000, 618.000000)">
                <g id="编辑" transform="translate(233.000000, 80.000000)">
                    <rect id="矩形" opacity="0" x="0" y="0" width="16" height="16"></rect>
                    <path d="M9.17881944,1.29489085 C9.5546799,1.29489085 9.859375,1.59316796 9.859375,1.96111143 C9.859375,2.3290549 9.5546799,2.62733201 9.17881944,2.62733201 L2.65277778,2.62733201 C2.49169473,2.62733201 2.36111111,2.75516506 2.36111111,2.91285512 L2.36111111,13.3820357 C2.36111111,13.5397258 2.49169473,13.6675588 2.65277778,13.6675588 L13.3472222,13.6675588 C13.5083053,13.6675588 13.6388889,13.5397258 13.6388889,13.3820357 L13.6388889,6.44715532 C13.6388889,6.07921185 13.943584,5.78093474 14.3194444,5.78093474 C14.6953049,5.78093474 15,6.07921185 15,6.44715532 L15,13.3820357 C15,14.2756127 14.2600262,15 13.3472222,15 L2.65277778,15 C1.73997382,15 1,14.2756127 1,13.3820357 L1,2.91285512 C1,2.01927813 1.73997382,1.29489085 2.65277778,1.29489085 L9.17881944,1.29489085 Z M12.5986111,1 L14.7986735,3.15372112 L14.9361707,3.2883221 L14.7986694,3.42291898 L6.79873881,11.2538661 L6.71004537,11.3035228 L4.46179883,11.8740887 C4.16876319,11.9484843 3.85825602,11.8496721 3.66592063,11.6208178 C3.47358524,11.3919634 3.43437159,11.0746528 3.56536547,10.807592 L4.49667368,8.9312812 L12.4611181,1.13459688 L12.5986111,1 Z M12.5976389,2.88335107 L5.61448223,9.70640596 L5.33611111,10.2745926 L6.06236111,10.0899543 L13.0108333,3.28784214 L12.5976389,2.88335107 Z" id="形状结合"></path>
                </g>
            </g>
        </g>
    </g>
</svg>