<?xml version="1.0" encoding="UTF-8"?>
<svg width="32px" height="32px" viewBox="0 0 32 32" version="1.1" xmlns="http://www.w3.org/2000/svg" xmlns:xlink="http://www.w3.org/1999/xlink">
    <title>进出口</title>
    <g id="页面-1" stroke="none" stroke-width="1" fill="none" fill-rule="evenodd">
        <g id="主页——配置（主体1）" transform="translate(-392.000000, -56.000000)" fill="#5A5A5A">
            <g id="工具栏" transform="translate(376.000000, 48.000000)">
                <g id="进出口" transform="translate(16.000000, 8.000000)">
                    <g id="编组-44" transform="translate(8.000000, 8.000000)">
                        <rect id="矩形" x="0" y="7.25" width="7" height="1.4" rx="0.7"></rect>
                        <rect id="矩形备份-28" x="9" y="7.25" width="7" height="1.4" rx="0.7"></rect>
                        <path d="M10.6818799,5.09976201 L11.978,6.435 L11.9787082,5.59184857 C11.9787082,5.36940942 12.1577943,5.18908687 12.3787082,5.18908687 C12.5996221,5.18908687 12.7787082,5.36940942 12.7787082,5.59184857 L12.778,6.51 L14.3312783,5.08361815 C14.4966178,4.93171899 14.7494234,4.94754276 14.8959356,5.11896153 C15.0424477,5.2903803 15.0271851,5.55248127 14.8618456,5.70438043 L12.6439919,7.74194642 L12.3631053,8 L12.0968284,7.72580256 L10.1181202,5.68823657 C9.96138047,5.52683458 9.96051977,5.2642579 10.1161977,5.10175514 C10.2718757,4.93925237 10.5251402,4.93836002 10.6818799,5.09976201 Z M12.3787082,2.77251667 C12.5996221,2.77251667 12.7787082,2.95283922 12.7787082,3.17527837 L12.7787082,4.18218263 C12.7787082,4.40462178 12.5996221,4.58494434 12.3787082,4.58494434 C12.1577943,4.58494434 11.9787082,4.40462178 11.9787082,4.18218263 L11.9787082,3.17527837 C11.9787082,2.95283922 12.1577943,2.77251667 12.3787082,2.77251667 Z M12.3787082,0 C12.5996221,0 12.7787082,0.180322557 12.7787082,0.402761704 L12.7787082,1.76561243 C12.7787082,1.98805158 12.5996221,2.16837413 12.3787082,2.16837413 C12.1577943,2.16837413 11.9787082,1.98805158 11.9787082,1.76561243 L11.9787082,0.402761704 C11.9787082,0.180322557 12.1577943,0 12.3787082,0 Z" id="形状结合" fill-rule="nonzero" transform="translate(12.498283, 4.000000) scale(1, -1) translate(-12.498283, -4.000000) "></path>
                        <path d="M1.68187987,13.099762 L2.978,14.435 L2.97870824,13.5918486 C2.97870824,13.3694094 3.15779434,13.1890869 3.37870824,13.1890869 C3.59962214,13.1890869 3.77870824,13.3694094 3.77870824,13.5918486 L3.778,14.51 L5.33127827,13.0836181 C5.49661776,12.931719 5.74942345,12.9475428 5.89593558,13.1189615 C6.04244771,13.2903803 6.02718512,13.5524813 5.86184564,13.7043804 L3.64399193,15.7419464 L3.36310527,16 L3.09682839,15.7258026 L1.11812016,13.6882366 C0.961380474,13.5268346 0.960519768,13.2642579 1.11619771,13.1017551 C1.27187566,12.9392524 1.52514019,12.93836 1.68187987,13.099762 Z M3.37870824,10.7725167 C3.59962214,10.7725167 3.77870824,10.9528392 3.77870824,11.1752784 L3.77870824,12.1821826 C3.77870824,12.4046218 3.59962214,12.5849443 3.37870824,12.5849443 C3.15779434,12.5849443 2.97870824,12.4046218 2.97870824,12.1821826 L2.97870824,11.1752784 C2.97870824,10.9528392 3.15779434,10.7725167 3.37870824,10.7725167 Z M3.37870824,8 C3.59962214,8 3.77870824,8.18032256 3.77870824,8.4027617 L3.77870824,9.76561243 C3.77870824,9.98805158 3.59962214,10.1683741 3.37870824,10.1683741 C3.15779434,10.1683741 2.97870824,9.98805158 2.97870824,9.76561243 L2.97870824,8.4027617 C2.97870824,8.18032256 3.15779434,8 3.37870824,8 Z" id="形状结合" fill-rule="nonzero"></path>
                    </g>
                </g>
            </g>
        </g>
    </g>
</svg>