<?xml version="1.0" encoding="UTF-8"?>
<svg width="32px" height="32px" viewBox="0 0 32 32" version="1.1" xmlns="http://www.w3.org/2000/svg" xmlns:xlink="http://www.w3.org/1999/xlink">
    <title>当前位置</title>
    <g id="视频库" stroke="none" stroke-width="1" fill="none" fill-rule="evenodd">
        <g id="视频库——未选点位（已识别）" transform="translate(-456.000000, -56.000000)" fill="#5A5A5A" fill-rule="nonzero">
            <g id="工具栏" transform="translate(0.000000, 48.000000)">
                <g id="编组-3" transform="translate(296.000000, 8.000000)">
                    <g id="当前位置" transform="translate(160.000000, 0.000000)">
                        <path d="M16.1344504,8 C16.533432,8 16.8568705,8.3234385 16.8568705,8.72242011 L16.8568705,10.1584308 C19.4823691,10.5487134 21.5248693,12.6427687 21.8495962,15.2771785 L23.2767772,15.2771785 C23.6757588,15.2771785 23.9991973,15.600617 23.9991973,15.9995987 C23.9991973,16.3985803 23.6757588,16.7220188 23.2767772,16.7220188 L21.8463854,16.7220188 C21.5139178,19.3477601 19.4748025,21.4314893 16.8568705,21.8206993 L16.8568705,23.2775799 C16.8568705,23.6765615 16.533432,24 16.1344504,24 C15.7354688,24 15.4120303,23.6765615 15.4120303,23.2775799 L15.4120303,21.8544123 C12.6779412,21.5761877 10.4972936,19.4484507 10.1520093,16.7220188 L8.72242014,16.7220188 C8.46432429,16.7220188 8.22583388,16.5843263 8.09678595,16.3608087 C7.96773802,16.1372912 7.96773802,15.8619062 8.09678595,15.6383886 C8.22583388,15.414871 8.46432429,15.2771785 8.72242014,15.2771785 L10.1496012,15.2771785 C10.4864614,12.5421048 12.6704535,10.4037513 15.4120303,10.1247178 L15.4120303,8.72242011 C15.4120303,8.3234385 15.7354688,8 16.1344504,8 Z M17.6989386,11.8779538 C16.0359745,11.1889558 14.1217091,11.5696371 12.8488839,12.8424623 C11.5760587,14.1152876 11.1953773,16.0295529 11.8843753,17.6925171 C12.5733734,19.3554812 14.1963413,20.4395962 15.9963879,20.4392716 C18.452571,20.4366172 20.4430387,18.4461495 20.4456932,15.9899664 C20.4460178,14.1899197 19.3619028,12.5669518 17.6989386,11.8779538 Z M14.4498565,14.3159534 C15.0377828,13.7622753 15.8764441,13.5643333 16.6498933,13.7966976 C17.4233425,14.0290619 18.0140601,14.6564266 18.1995064,15.442446 C18.3850875,16.2284336 18.1372268,17.0537208 17.5493005,17.6073989 C16.9613742,18.161077 16.1227129,18.359019 15.3492637,18.1266548 C14.5758145,17.8942905 13.9850969,17.2669257 13.7996506,16.4809063 C13.6140695,15.6949188 13.8619302,14.8696315 14.4498565,14.3159534 Z" id="形状结合"></path>
                    </g>
                </g>
            </g>
        </g>
    </g>
</svg>