<?xml version="1.0" encoding="UTF-8"?>
<svg width="32px" height="32px" viewBox="0 0 32 32" version="1.1" xmlns="http://www.w3.org/2000/svg" xmlns:xlink="http://www.w3.org/1999/xlink">
    <title>地图样式</title>
    <g id="视频库" stroke="none" stroke-width="1" fill="none" fill-rule="evenodd">
        <g id="视频库——未选点位（已识别）" transform="translate(-296.000000, -56.000000)" fill="#5A5A5A">
            <g id="工具栏" transform="translate(0.000000, 48.000000)">
                <g id="地图样式" transform="translate(296.000000, 8.000000)">
                    <path d="M26,22 L26,25 C26,25.5522847 25.5522847,26 25,26 L22,26 L22,26 L26,22 Z" id="矩形"></path>
                    <path d="M15.8681085,24 C11.5479214,23.9411836 8.05999016,20.4514617 8.00120398,16.1290566 C7.92835658,11.9020799 11.1698183,8.33099808 15.394626,8.00304211 L15.6131512,8.00304211 C16.4872517,7.96660825 17.2885218,8.25811328 17.907665,8.84115751 C18.5632404,9.46061852 18.9274603,10.3351678 18.9274603,11.246168 C18.9274603,11.3554866 18.9274603,11.4648053 18.9638755,11.574124 C19.073138,12.3029036 19.6922982,12.9223817 20.4207039,13.0317004 C20.5299665,13.0681342 20.6392291,13.0681342 20.7484916,13.0681342 C21.6590244,13.0681342 22.5331249,13.4325411 23.152268,14.0884531 C23.7350131,14.7079141 24.0628007,15.5095956 23.9899534,16.3841449 L23.9899534,16.6027822 C23.6985808,20.7568912 20.2021788,24 16.0137862,24 L15.8681085,24 Z M15.5038886,9.46061852 C12.1167491,9.71570677 9.38518507,12.7037444 9.45803247,16.0926228 C9.53087987,19.6272537 12.3352743,22.4695388 15.9045237,22.5424236 C19.3280783,22.5788574 22.2781675,19.8823419 22.56954,16.4934636 L22.56954,16.3112601 C22.6059552,15.8739855 22.4238623,15.4367108 22.1324898,15.1087549 C21.8047021,14.744365 21.2948044,14.5621616 20.7849239,14.5621616 C20.6028139,14.5621616 20.3842888,14.5621616 20.2021788,14.5257277 C18.8546129,14.3070904 17.7619873,13.2139038 17.5434621,11.865629 C17.4706147,11.6105578 17.4706147,11.4283544 17.4706147,11.246168 C17.4706147,10.7360086 17.2520896,10.2258491 16.9243019,9.89789315 C16.5965142,9.60638811 16.1958962,9.42418466 15.7952611,9.42418466 L15.7224137,9.42418466 C15.6495834,9.42418466 15.576736,9.42418466 15.5038886,9.46061852 Z M14.5569578,14.1613208 C13.7556876,14.1613208 13.1001122,13.5054089 13.1001122,12.7037444 C13.1001122,11.9020799 13.7556876,11.246168 14.5569578,11.246168 C15.3582279,11.246168 16.0137862,11.9020799 16.0137862,12.7037444 C16.0137862,13.5054089 15.3582109,14.1613208 14.5569578,14.1613208 L14.5569578,14.1613208 Z M14.1927378,18.1696773 C14.8118981,18.1696773 15.2853635,18.6433858 15.2853635,19.2628639 C15.2853635,19.8823419 14.8118981,20.3560504 14.1927378,20.3560504 C13.5735776,20.3560504 13.1001122,19.8823419 13.1001122,19.2628639 C13.1001122,18.6433858 13.5735947,18.1696773 14.1927378,18.1696773 Z M12.3717065,17.2586942 C11.7525463,17.2586942 11.2790809,16.7849686 11.2790809,16.1655076 C11.2790809,15.5460466 11.7525463,15.072321 12.3717065,15.072321 C12.9908667,15.072321 13.4643321,15.5460295 13.4643321,16.1655076 C13.4643321,16.7849857 12.9908496,17.2586942 12.3717065,17.2586942 Z" id="形状" fill-rule="nonzero"></path>
                </g>
            </g>
        </g>
    </g>
</svg>