<?xml version="1.0" encoding="UTF-8"?>
<svg width="32px" height="32px" viewBox="0 0 32 32" version="1.1" xmlns="http://www.w3.org/2000/svg" xmlns:xlink="http://www.w3.org/1999/xlink">
    <title>移动</title>
    <g id="视频库" stroke="none" stroke-width="1" fill="none" fill-rule="evenodd">
        <g id="视频库——未选点位（已识别）" transform="translate(-505.000000, -56.000000)" fill="#5A5A5A" fill-rule="nonzero">
            <g id="工具栏" transform="translate(0.000000, 48.000000)">
                <g id="编组-3" transform="translate(296.000000, 8.000000)">
                    <g id="移动" transform="translate(209.000000, 0.000000)">
                        <path d="M16,8 L16.0138075,8 C16.0454867,8 16.0771036,8.00282826 16.1083587,8.00799705 L16.1461826,8.01454251 C16.1621882,8.01744024 16.1781769,8.02182092 16.1934496,8.0254516 C16.2047308,8.02840826 16.2158927,8.03180288 16.2269099,8.03562774 C16.2414496,8.03999138 16.2552735,8.04582093 16.2698133,8.05090048 C16.2981756,8.06186887 16.3256541,8.07499835 16.3520065,8.09017322 L16.3781883,8.10544596 C16.4275318,8.13534409 16.4729706,8.17125538 16.5134611,8.2123551 L16.4480066,8.15417893 L16.454552,8.15927553 L16.514177,8.2123551 L18.6959962,10.3941743 C18.8796968,10.5778718 18.9514417,10.8456184 18.8842052,11.0965565 C18.8169688,11.3474946 18.6209659,11.5435008 18.3700288,11.6107414 C18.1190918,11.677982 17.851344,11.6062416 17.6676435,11.4225441 L16.7272794,10.4829129 L16.7272794,15.2727219 L21.5163725,15.2727219 L20.5767073,14.3323579 C20.3176313,14.0732508 20.2917669,13.6618735 20.5163493,13.3723574 L20.5767073,13.3040051 C20.7129966,13.1674823 20.8979848,13.090765 21.0908922,13.090765 C21.2837996,13.090765 21.4687877,13.1674823 21.6050771,13.3040051 L23.7868963,15.4858243 C23.8072656,15.5061766 23.8269019,15.5287277 23.8450724,15.5512789 L23.8567145,15.5665516 C23.8699135,15.5839901 23.8820546,15.6022047 23.8930724,15.6210971 C23.898169,15.6298244 23.9039815,15.6385516 23.9083452,15.6479948 C23.9226621,15.6746813 23.935533,15.7021187 23.946902,15.7301881 L23.9628906,15.7738244 L23.9730838,15.8072676 L23.9847088,15.8545517 L23.9912543,15.8923586 C23.9971367,15.927936 23.999983,15.9639403 23.999983,16 L23.9970838,15.9374438 C23.9985357,15.9504901 23.9992641,15.9636068 23.9992657,15.9767336 L23.999983,16 L23.9992657,16.0247166 L23.9970838,16.0625575 C23.9957837,16.07811 23.9940843,16.0936265 23.9919873,16.1090916 L23.9854418,16.1469155 C23.9825441,16.1629042 23.9781634,16.1789098 23.9745327,16.1941826 C23.971576,16.2054638 23.9681814,16.2166257 23.9643566,16.2276428 C23.9599929,16.2421826 23.9541634,16.2560065 23.9490838,16.2705463 C23.9381146,16.2989027 23.9249852,16.3263755 23.9098111,16.3527224 L23.8945383,16.3789043 C23.8646402,16.4282477 23.8287289,16.4736865 23.7876292,16.514177 L23.8458054,16.4487225 L23.8407088,16.4552679 L23.7876292,16.51491 L21.60581,18.6967292 C21.4221125,18.8804297 21.1543659,18.9521746 20.9034278,18.8849382 C20.6524897,18.8177017 20.4564835,18.6216988 20.3892429,18.3707618 C20.3220023,18.1198248 20.3937427,17.852077 20.5774402,17.6683764 L21.5163554,16.7272794 L16.7272624,16.7272794 L16.7272624,21.5163725 L17.6676264,20.5767243 C17.9267335,20.3176484 18.3381108,20.2917839 18.6276269,20.5163664 L18.6959792,20.5767243 C18.832502,20.7130137 18.9092193,20.8980019 18.9092193,21.0909092 C18.9092193,21.2838166 18.832502,21.4688048 18.6959792,21.6050941 L16.51416,23.7869133 C16.49338,23.8074429 16.4715315,23.8268619 16.4487054,23.8450895 L16.4334327,23.8567315 C16.4159942,23.8699306 16.3977797,23.8820717 16.3788872,23.8930895 C16.3701599,23.8981861 16.3614327,23.9039986 16.3519895,23.9083622 C16.325303,23.9226792 16.2978656,23.9355501 16.2697963,23.946919 L16.2261599,23.9629077 L16.1927167,23.9731009 C16.1770415,23.9773185 16.1612764,23.9811944 16.1454326,23.9847259 L16.1076257,23.9912713 C16.0720483,23.9971537 16.036044,24 15.9999836,24 L16.0618075,23.9971009 L16.0239836,23.9992827 L15.9999836,24 L15.9759836,23.9992827 L15.9374438,23.9971009 C15.9221293,23.9958014 15.9068514,23.994102 15.8916256,23.9920043 L15.8538017,23.9854588 C15.8377961,23.9825611 15.8218074,23.9781804 15.8065347,23.9745497 C15.7952535,23.9715931 15.7840916,23.9681985 15.7730744,23.9643736 C15.7585347,23.96001 15.7447108,23.9541804 15.730171,23.9491009 C15.7018087,23.9381325 15.6743302,23.925003 15.6479778,23.9098281 L15.621796,23.8945554 C15.5724525,23.8646573 15.5270137,23.828746 15.4865232,23.7876463 L15.5519777,23.8458224 C15.5289959,23.8277805 15.507137,23.8083523 15.4865232,23.7876463 L13.304704,21.6058271 C13.1210034,21.4221265 13.0492602,21.1543771 13.1164993,20.9034375 C13.1837383,20.6524978 13.3797445,20.4564916 13.6306842,20.3892526 C13.8816238,20.3220135 14.1493732,20.3937567 14.3330738,20.5774573 L15.2727049,21.5163725 L15.2727049,16.7272794 L10.4829129,16.7272794 L11.423277,17.6676435 C11.682353,17.9267506 11.7082174,18.3381278 11.483635,18.6276439 L11.423277,18.6959962 C11.2869877,18.832519 11.1019995,18.9092364 10.9090921,18.9092364 C10.7161847,18.9092364 10.5311966,18.832519 10.3949072,18.6959962 L8.21308805,16.514177 L8.15999144,16.454552 L8.15491189,16.4480066 L8.14326984,16.4327338 C8.13007079,16.4152953 8.11792966,16.3970808 8.10691187,16.3781883 C8.10181527,16.3694611 8.09600277,16.3607338 8.09163913,16.3512736 C8.07732272,16.3245926 8.06445185,16.297161 8.0530823,16.2690974 L8.03709365,16.225461 L8.02690047,16.1920008 C8.02268306,16.1763313 8.01880714,16.1605718 8.01527546,16.1447337 L8.00873,16.1069098 C8.0028173,16.0715826 8,16.0358192 8,16 L8.00290046,16.0647223 C8.00155172,16.0477803 8.00058557,16.0308101 8,16.0138245 L8,15.9861938 C8,15.9694552 8.00145159,15.9527336 8.00290046,15.9352791 L8.00799705,15.8916427 L8.01454251,15.8538188 C8.01744024,15.8378131 8.02182092,15.8218245 8.0254516,15.8065517 C8.02840826,15.7952705 8.03180288,15.7841086 8.03562774,15.7730915 C8.03999138,15.7585517 8.04582093,15.7447278 8.05090048,15.7301881 C8.06186887,15.7018257 8.07499835,15.6743473 8.09017322,15.6479948 L8.10544596,15.621813 C8.13534409,15.5724696 8.17125538,15.5270308 8.2123551,15.4865402 L8.15417893,15.5519948 C8.1722208,15.5290129 8.191649,15.5071541 8.2123551,15.4865402 L10.3941743,13.304721 C10.5778748,13.1210205 10.8456242,13.0492772 11.0965639,13.1165163 C11.3475035,13.1837554 11.5435097,13.3797616 11.6107488,13.6307012 C11.6779879,13.8816408 11.6062446,14.1493903 11.4225441,14.3330908 L10.4829129,15.2727219 L15.2727219,15.2727219 L15.2727219,10.4829129 L14.3323579,11.423277 C14.0732508,11.682353 13.6618735,11.7082174 13.3723574,11.483635 L13.3040051,11.423277 C13.1674823,11.2869877 13.090765,11.1019995 13.090765,10.9090921 C13.090765,10.7161847 13.1674823,10.5311966 13.3040051,10.3949072 L15.4858243,8.21308805 L15.5454493,8.15999144 L15.5519948,8.15491189 L15.5672675,8.14326984 C15.584706,8.13007079 15.6029206,8.11792966 15.621813,8.10691187 C15.6305403,8.10181527 15.6392676,8.09600277 15.6487278,8.09163913 C15.6754087,8.07732272 15.7028404,8.06445185 15.730904,8.0530823 L15.7745403,8.03709365 L15.8080006,8.02690047 L15.8552677,8.01527546 L15.8930915,8.00873 C15.9284188,8.0028173 15.9641822,8 16,8 L15.9352791,8.00290046 L15.9869098,8 L16,8 Z" id="路径"></path>
                    </g>
                </g>
            </g>
        </g>
    </g>
</svg>