<?xml version="1.0" encoding="UTF-8"?>
<svg width="16px" height="16px" viewBox="0 0 16 16" version="1.1" xmlns="http://www.w3.org/2000/svg" xmlns:xlink="http://www.w3.org/1999/xlink">
    <title>编组 9</title>
    <g id="页面-1" stroke="none" stroke-width="1" fill="none" fill-rule="evenodd">
        <g id="主页——配置（主体1）备份" transform="translate(-400.000000, -729.000000)" fill="#5A5A5A" fill-rule="nonzero">
            <g id="信控" transform="translate(376.000000, 650.000000)">
                <g id="编组-33" transform="translate(16.000000, 64.000000)">
                    <g id="编组-42" transform="translate(6.000000, 15.000000)">
                        <g id="编组-9" transform="translate(2.000000, 0.000000)">
                            <path d="M5.86761924,0 C6.57014495,0 7.2211586,0.368597668 7.58260509,0.971008489 L9.4,4 L14,4 C15.1045695,4 16,4.8954305 16,6 L16,14 C16,15.1045695 15.1045695,16 14,16 L2,16 C0.8954305,16 0,15.1045695 0,14 L0,2 C0,0.8954305 0.8954305,0 2,0 L5.86761924,0 Z M14,5 L1,5 L1,14 C1,14.5522847 1.44771525,15 2,15 L14,15 C14.5522847,15 15,14.5522847 15,14 L15,6 C15,5.44771525 14.5522847,5 14,5 Z M8,6 C8.27614237,6 8.5,6.22385763 8.5,6.5 L8.5,9.5 L11.5,9.5 C11.7761424,9.5 12,9.72385763 12,10 C12,10.2761424 11.7761424,10.5 11.5,10.5 L8.5,10.5 L8.5,13.5 C8.5,13.7761424 8.27614237,14 8,14 C7.72385763,14 7.5,13.7761424 7.5,13.5 L7.5,10.5 L4.5,10.5 C4.22385763,10.5 4,10.2761424 4,10 C4,9.72385763 4.22385763,9.5 4.5,9.5 L7.5,9.5 L7.5,6.5 C7.5,6.22385763 7.72385763,6 8,6 Z M5.86761924,1 L2,1 C1.44771525,1 1,1.44771525 1,2 L1,4 L8.234,4 L6.72511217,1.48550424 C6.56697933,1.22194951 6.29799656,1.04790137 5.99790302,1.00850738 L5.86761924,1 Z" id="形状结合"></path>
                        </g>
                    </g>
                </g>
            </g>
        </g>
    </g>
</svg>