<?xml version="1.0" encoding="UTF-8"?>
<svg width="32px" height="32px" viewBox="0 0 32 32" version="1.1" xmlns="http://www.w3.org/2000/svg" xmlns:xlink="http://www.w3.org/1999/xlink">
    <title>点选</title>
    <g id="页面-2" stroke="none" stroke-width="1" fill="none" fill-rule="evenodd">
        <g id="视频库——未选点位（交互1）" transform="translate(-498.000000, -56.000000)" fill="#5A5A5A" fill-rule="nonzero">
            <g id="点选" transform="translate(498.000000, 56.000000)">
                <path d="M13.3432015,11.8629426 L23.1658157,15.7928 C23.8084469,16.0488788 24.1679081,16.8071362 23.9222823,17.4178665 C23.8093733,17.7892831 23.5189316,18.080092 23.1552975,18.1909981 L19.3791276,19.4818956 L18.0843206,23.1661099 C17.836692,23.7851813 17.2416592,24.1138954 16.5895682,23.9596016 L16.4584752,23.9222456 C16.0872769,23.8091918 15.7967692,23.5186841 15.690871,23.1677192 L11.8022396,13.5496897 C11.5508792,12.9188993 11.9092068,12.1626982 12.5332946,11.9129916 C12.7673411,11.7959683 13.0855522,11.7792507 13.3432015,11.8629426 Z M13.3865922,13.4864517 L16.8167152,21.9745033 L17.9345938,18.7092181 C18.0352049,18.3794037 18.2758323,18.1133093 18.5870574,17.9792504 L18.7069404,17.9353008 L21.947357,16.9107576 L13.3865922,13.4864517 Z M13.5,8 C16.1860024,8 18.4222985,9.92542188 18.90397,12.4713474 L13.9003867,10.4702673 L13.80661,10.4363198 C13.2420702,10.2529409 12.59826,10.2693652 12.0437662,10.4901724 L11.9760711,10.5203315 L11.8188483,10.5890748 C10.5332582,11.2002406 9.87037131,12.7537711 10.4087977,14.1049552 L12.3382494,18.8770741 C9.85861477,18.3438821 8,16.1389924 8,13.5 C8,10.4624339 10.4624339,8 13.5,8 Z" id="形状结合"></path>
            </g>
        </g>
    </g>
</svg>