<?xml version="1.0" encoding="UTF-8"?>
<svg width="32px" height="32px" viewBox="0 0 32 32" version="1.1" xmlns="http://www.w3.org/2000/svg" xmlns:xlink="http://www.w3.org/1999/xlink">
    <title>点选</title>
    <g id="视频库" stroke="none" stroke-width="1" fill="none" fill-rule="evenodd">
        <g id="视频库——未选点位（已识别）" transform="translate(-545.000000, -56.000000)" fill="#5A5A5A">
            <g id="工具栏" transform="translate(0.000000, 48.000000)">
                <g id="编组-3" transform="translate(296.000000, 8.000000)">
                    <g id="点选" transform="translate(249.000000, 0.000000)">
                        <g>
                            <path d="M12,22.5 L12,24 L10,24 L10,22.5 L12,22.5 Z M9.5,22 L9.5,24 L8,24 L8,22 L9.5,22 Z M13.3432015,11.8629426 L13.464,11.912 L13.4476176,11.9047449 L23.1658157,15.7928 C23.8084469,16.0488788 24.1679081,16.8071362 23.9222823,17.4178665 C23.8093733,17.7892831 23.5189316,18.080092 23.1552975,18.1909981 L19.3791276,19.4818956 L18.0843206,23.1661099 C17.836692,23.7851813 17.2416592,24.1138954 16.5895682,23.9596016 L16.4584752,23.9222456 C16.0872769,23.8091918 15.7967692,23.5186841 15.690871,23.1677192 L11.8022396,13.5496897 C11.5508792,12.9188993 11.9092068,12.1626982 12.5332946,11.9129916 C12.7673411,11.7959683 13.0855522,11.7792507 13.3432015,11.8629426 Z M13.3865922,13.4864517 L16.8167152,21.9745033 L17.9345938,18.7092181 C18.0352049,18.3794037 18.2758323,18.1133093 18.5870574,17.9792504 L18.7069404,17.9353008 L21.947357,16.9107576 L13.3865922,13.4864517 Z M9.5,18 L9.5,20 L8,20 L8,18 L9.5,18 Z M9.5,14 L9.5,16 L8,16 L8,14 L9.5,14 Z M24,12 L24,14 L22.5,14 L22.5,12 L24,12 Z M9.5,10 L9.5,12 L8,12 L8,10 L9.5,10 Z M24,8 L24,10 L22.5,10 L22.5,8 L24,8 Z M10,8 L10,9.5 L8,9.5 L8,8 L10,8 Z M14,8 L14,9.5 L12,9.5 L12,8 L14,8 Z M18,8 L18,9.5 L16,9.5 L16,8 L18,8 Z M22,8 L22,9.5 L20,9.5 L20,8 L22,8 Z" id="形状结合" fill-rule="nonzero"></path>
                            <path d="M26,22 L26,25 C26,25.5522847 25.5522847,26 25,26 L22,26 L22,26 L26,22 Z" id="矩形"></path>
                        </g>
                        <path d="M26,22 L26,25 C26,25.5522847 25.5522847,26 25,26 L22,26 L22,26 L26,22 Z" id="矩形"></path>
                    </g>
                </g>
            </g>
        </g>
    </g>
</svg>