<?xml version="1.0" encoding="UTF-8"?>
<svg width="32px" height="32px" viewBox="0 0 32 32" version="1.1" xmlns="http://www.w3.org/2000/svg" xmlns:xlink="http://www.w3.org/1999/xlink">
    <title>卫星地图</title>
    <g id="视频库" stroke="none" stroke-width="1" fill="none" fill-rule="evenodd">
        <g id="视频库——未选点位（已识别）" transform="translate(-336.000000, -56.000000)" fill="#5A5A5A" fill-rule="nonzero">
            <g id="工具栏" transform="translate(0.000000, 48.000000)">
                <g id="编组-3" transform="translate(296.000000, 8.000000)">
                    <g id="卫星地图" transform="translate(40.000000, 0.000000)">
                        <path d="M8.89887657,19.9972528 L11.9786538,23.0956764 C12.0497431,23.1671855 12.0497431,23.2387001 11.9786538,23.3102202 L11.3463457,23.9463599 C11.2752564,24.01788 11.2041726,24.01788 11.1330942,23.9463599 L8.05331699,20.8479363 C7.98222767,20.7764272 7.98222767,20.7049126 8.05331699,20.6333925 L8.68562506,19.9972528 C8.75671437,19.9257327 8.82779821,19.9257327 8.89887657,19.9972528 Z M18.7195417,9.39132034 C18.8675416,9.39132034 19.0094697,9.45051723 19.1140562,9.55586871 L22.4525199,12.9110403 C22.6690828,13.1321663 22.6690828,13.4872472 22.4525199,13.7083732 L15.9263793,20.2740611 C16.0493788,21.2887122 15.8492384,22.3164622 15.3547607,23.2094063 C15.2673284,23.360423 15.1152983,23.4621797 14.9430665,23.4849612 C14.7708347,23.5077427 14.5978272,23.4489795 14.474566,23.3258318 L8.7654978,17.5856901 C8.64172277,17.4623262 8.58238112,17.2878454 8.6050927,17.1140551 C8.62780428,16.9402648 8.72995796,16.7871455 8.88122204,16.7001616 C9.76618693,16.198949 10.7874867,15.9961696 11.7953689,16.1215566 L18.3250273,9.55586871 C18.4296138,9.45051723 18.5715418,9.39132034 18.7195417,9.39132034 Z M21.5828374,15.5505315 C21.619844,15.5505315 21.655271,15.5656191 21.6810304,15.5923497 L23.8341917,17.7585754 C23.943263,17.866931 24.0031844,18.0156825 23.9998694,18.1698609 C23.9965544,18.3240393 23.9302954,18.4700448 23.8166687,18.573554 L21.011227,21.3959797 C20.9066405,21.5013311 20.7647124,21.560528 20.6167125,21.560528 C20.4687126,21.560528 20.3267846,21.5013311 20.222198,21.3959797 L18.0690203,19.2297705 C18.0173526,19.1741686 18.0173526,19.0877963 18.0690203,19.0321944 L18.7703848,18.3265797 C18.7952737,18.298546 18.8312268,18.2830433 18.8685696,18.2842432 C18.9056549,18.2843767 18.9410964,18.2996563 18.9667708,18.3265797 L20.625474,19.9918284 L22.4384982,18.1642951 L20.7832798,16.499063 C20.7565065,16.4725389 20.7414305,16.4363166 20.7414305,16.3985137 C20.7414305,16.3607108 20.7565065,16.3244885 20.7832798,16.2979644 L21.4846444,15.5923497 C21.5104037,15.5656191 21.5458308,15.5505315 21.5828374,15.5505315 Z M11.2097286,17.419864 C10.9859334,17.4191171 10.7626566,17.4415784 10.543443,17.4869103 L14.5692495,21.5371125 C14.7686272,20.5253609 14.5071696,19.4769512 13.85666,18.6797252 C13.2061504,17.8824993 12.2349596,17.420248 11.2097286,17.419864 Z M18.7212842,11.0552772 L13.5487721,16.2379821 L15.810655,18.5029875 L20.9726468,13.3202826 L18.7212842,11.0552772 Z M13.8994461,8.00000024 C14.0459581,8.00095988 14.1860471,8.06063232 14.2887004,8.16580761 L16.4558999,10.3179266 C16.4826732,10.3444508 16.4977492,10.3806731 16.4977492,10.4184759 C16.4977492,10.4562788 16.4826732,10.4925011 16.4558999,10.5190252 L15.7545354,11.2246234 C15.6981036,11.2770716 15.6110797,11.2770716 15.554648,11.2246234 L13.8994461,9.55586871 L12.0899397,11.3728013 L13.7451416,13.0415725 C13.7717112,13.067488 13.7867079,13.1031297 13.7867079,13.1403606 C13.7867079,13.1775914 13.7717112,13.2132331 13.7451416,13.2391486 L13.0437935,13.9447468 C13.0180342,13.9714774 12.9826071,13.9865649 12.9456005,13.9865649 C12.9085939,13.9865649 12.8731669,13.9714774 12.8474075,13.9447468 L10.6977475,11.7820601 C10.5930306,11.6768398 10.5341903,11.5340517 10.5341903,11.385155 C10.5341903,11.2362582 10.5930306,11.0934701 10.6977475,10.9882498 L13.5031728,8.16580761 C13.6079835,8.05955938 13.7506564,7.99986276 13.8994461,8.00000024 Z" id="形状结合"></path>
                    </g>
                </g>
            </g>
        </g>
    </g>
</svg>