<svg width="800" height="600" xmlns="http://www.w3.org/2000/svg">

 <g>
  <title>Layer 1</title>
  <g stroke="null">
   <title stroke="null">编组 17</title>
   <g stroke="null" fill-rule="evenodd" fill="none" id="svg_1">
    <g stroke="null" fill-rule="nonzero" fill="#5A5A5A" transform="translate(-376 -56)" id="svg_2">
     <g stroke="null" transform="translate(0 48)" id="svg_3">
      <g stroke="null" transform="translate(296 8)" id="svg_4">
       <g stroke="null" transform="translate(80 0)" id="svg_5">
        <g stroke="null" id="svg_8">
         <path stroke="null" id="svg_7" d="m287.63536,221.76949c4.52608,-4.65705 11.33303,-6.04996 17.24647,-3.52913c5.91342,2.52083 9.76861,8.45886 9.76765,15.04491c0.00367,3.69435 -1.22025,7.27897 -3.46868,10.15924l6.02044,6.19703c0.69417,0.69676 0.70971,1.84002 0.03473,2.5565c-0.33373,0.33652 -0.78412,0.52221 -1.25136,0.51609c-0.46724,-0.00641 -0.91276,-0.20411 -1.23786,-0.54946l-6.01814,-6.19228c-2.80313,2.32908 -6.29838,3.59741 -9.90133,3.5929c-6.40084,0.00096 -12.17188,-3.96576 -14.62183,-10.05029c-2.44992,-6.08453 -1.09619,-13.08848 3.42989,-17.74551zm17.36637,0.51429c-3.82076,-2.26975 -8.5281,-2.26975 -12.34886,0c-3.82076,2.26973 -6.17443,6.4644 -6.17443,11.00388c-0.00232,7.01808 5.52698,12.70737 12.34771,12.70737c6.82073,0 12.35001,-5.68929 12.35001,-12.70737c0,-4.53949 -2.35367,-8.73415 -6.17443,-11.00388zm-6.17443,3.50835c0.84054,0 1.52364,0.72431 1.52364,1.61299l0,4.31482l4.1981,0c0.85341,-0.0106 1.55388,0.69203 1.56532,1.57011c-0.01396,0.87752 -0.71472,1.57833 -1.56764,1.56772l-4.19578,0l0,4.31719c0,0.88871 -0.6831,1.61538 -1.52364,1.61538c-0.84054,0 -1.52364,-0.72667 -1.52364,-1.61538l0,-4.31719l-4.19578,0c-0.8637,0 -1.56764,-0.6981 -1.56764,-1.56536c0.0127,-0.87846 0.71383,-1.58071 1.56764,-1.57011l4.19578,0l0,-4.31719c0,-0.88868 0.6831,-1.61299 1.52364,-1.61299z"/>
        </g>
        <g stroke="null" transform="translate(40 0)" id="svg_6">
         <path stroke="null" id="形状结合" d="m287.63536,221.76949c4.52608,-4.65705 11.33303,-6.04996 17.24647,-3.52913c5.91342,2.52083 9.76861,8.45886 9.76765,15.04491c0.00367,3.69435 -1.22025,7.27897 -3.46868,10.15924l6.02044,6.19703c0.69417,0.69676 0.70971,1.84002 0.03473,2.5565c-0.33373,0.33652 -0.78412,0.52221 -1.25136,0.51609c-0.46724,-0.00641 -0.91276,-0.20411 -1.23786,-0.54946l-6.01814,-6.19228c-2.80313,2.32908 -6.29838,3.59741 -9.90133,3.5929c-6.40084,0.00096 -12.17188,-3.96576 -14.62183,-10.05029c-2.44992,-6.08453 -1.09619,-13.08848 3.42989,-17.74551zm17.36637,0.51429c-3.82076,-2.26975 -8.5281,-2.26975 -12.34886,0c-3.82076,2.26973 -6.17443,6.4644 -6.17443,11.00388c-0.00232,7.01808 5.52698,12.70737 12.34771,12.70737c6.82073,0 12.35001,-5.68929 12.35001,-12.70737c0,-4.53949 -2.35367,-8.73415 -6.17443,-11.00388zm-0.45269,9.43616c0.85341,-0.0106 1.55388,0.69203 1.56532,1.57011c-0.01396,0.87752 -0.71472,1.57833 -1.56764,1.56772l-11.43884,0c-0.8637,0 -1.56764,-0.6981 -1.56764,-1.56536c0.0127,-0.87846 0.71383,-1.58071 1.56764,-1.57011l11.44116,-0.00237z"/>
        </g>
       </g>
      </g>
     </g>
    </g>
   </g>
  </g>
 </g>
</svg>