<?xml version="1.0" encoding="UTF-8"?>
<svg width="16px" height="16px" viewBox="0 0 16 16" version="1.1" xmlns="http://www.w3.org/2000/svg" xmlns:xlink="http://www.w3.org/1999/xlink">
    <title>编组 9备份 2</title>
    <g id="页面-1" stroke="none" stroke-width="1" fill="none" fill-rule="evenodd">
        <g id="主页——配置（主体1）备份" transform="translate(-400.000000, -775.000000)" fill="#5A5A5A" fill-rule="nonzero">
            <g id="信控" transform="translate(376.000000, 650.000000)">
                <g id="编组-33" transform="translate(16.000000, 64.000000)">
                    <g id="编组-42" transform="translate(6.000000, 15.000000)">
                        <g id="编组-9备份-2" transform="translate(2.000000, 46.000000)">
                            <path d="M13,3 C14.1045695,3 15,3.8954305 15,5 L15,14 C15,15.1045695 14.1045695,16 13,16 L5,16 C3.8954305,16 3,15.1045695 3,14 L3,5 C3,3.8954305 3.8954305,3 5,3 L13,3 Z M13,4 L5,4 C4.44771525,4 4,4.44771525 4,5 L4,14 C4,14.5522847 4.44771525,15 5,15 L13,15 C13.5522847,15 14,14.5522847 14,14 L14,5 C14,4.44771525 13.5522847,4 13,4 Z M10,0 C11.1045695,0 12,0.8954305 12,2 L11,2 C11,1.44771525 10.5522847,1 10,1 L2,1 C1.44771525,1 1,1.44771525 1,2 L1,12 C1,12.5522847 1.44771525,13 2,13 L2,14 C0.8954305,14 0,13.1045695 0,12 L0,2 C0,0.8954305 0.8954305,0 2,0 L10,0 Z M9.5,12 C9.77614237,12 10,12.2238576 10,12.5 C10,12.7761424 9.77614237,13 9.5,13 L6.5,13 C6.22385763,13 6,12.7761424 6,12.5 C6,12.2238576 6.22385763,12 6.5,12 L9.5,12 Z M11.5,9 C11.7761424,9 12,9.22385763 12,9.5 C12,9.77614237 11.7761424,10 11.5,10 L6.5,10 C6.22385763,10 6,9.77614237 6,9.5 C6,9.22385763 6.22385763,9 6.5,9 L11.5,9 Z M11.5,6 C11.7761424,6 12,6.22385763 12,6.5 C12,6.77614237 11.7761424,7 11.5,7 L6.5,7 C6.22385763,7 6,6.77614237 6,6.5 C6,6.22385763 6.22385763,6 6.5,6 L11.5,6 Z" id="形状结合"></path>
                        </g>
                    </g>
                </g>
            </g>
        </g>
    </g>
</svg>