<?xml version="1.0" encoding="UTF-8"?>
<svg width="32px" height="32px" viewBox="0 0 32 32" version="1.1" xmlns="http://www.w3.org/2000/svg" xmlns:xlink="http://www.w3.org/1999/xlink">
    <title>转向线</title>
    <g id="页面-1" stroke="none" stroke-width="1" fill="none" fill-rule="evenodd">
        <g id="主页——配置（主体1）" transform="translate(-440.000000, -56.000000)" fill="#5A5A5A">
            <g id="工具栏" transform="translate(376.000000, 48.000000)">
                <g id="转向线" transform="translate(64.000000, 8.000000)">
                    <g id="编组-47" transform="translate(8.000000, 8.000000)">
                        <path d="M5.58655382,4.0991851 C5.86603371,4.36629936 5.87605803,4.80940147 5.60894376,5.08888136 L4.3078415,6.45072611 C7.0735023,6.88744185 9.1858106,9.27950229 9.1858106,12.1649188 L9.1858106,13.0758694 C9.1858106,13.4624687 8.87240993,13.7758694 8.4858106,13.7758694 C8.09921128,13.7758694 7.7858106,13.4624687 7.7858106,13.0758694 L7.7858106,12.1649188 C7.7858106,10.0795987 6.33032051,8.3342265 4.37981004,7.88927199 L5.25006075,9.198668 C5.44463251,9.49134819 5.3900185,9.87704253 5.1365962,10.105553 L5.05465563,10.1691405 C4.73270742,10.3831694 4.29821209,10.2956836 4.08418315,9.97373537 L2.31002742,7.30500165 L2,6.83864991 L2.38692312,6.43381481 L4.59685756,4.12157503 C4.86397183,3.84209515 5.30707394,3.83207083 5.58655382,4.0991851 Z" id="形状结合" fill-rule="nonzero"></path>
                        <path d="M10.5865538,2.19395802 C10.8660337,2.46107229 10.876058,2.9041744 10.6089438,3.18365428 L9.3078415,4.54549903 C12.0735023,4.98221477 14.1858106,7.37427521 14.1858106,10.2596917 L14.1858106,11.1706423 C14.1858106,11.5572417 13.8724099,11.8706423 13.4858106,11.8706423 C13.0992113,11.8706423 12.7858106,11.5572417 12.7858106,11.1706423 L12.7858106,10.2596917 C12.7858106,8.1743716 11.3303205,6.42899943 9.37981004,5.98404492 L10.2500607,7.29344093 C10.4446325,7.58612112 10.3900185,7.97181546 10.1365962,8.20032597 L10.0546556,8.26391341 C9.73270742,8.47794236 9.29821209,8.39045651 9.08418315,8.0685083 L7.31002742,5.39977458 L7,4.93342283 L7.38692312,4.52858774 L9.59685756,2.21634796 C9.86397183,1.93686807 10.3070739,1.92684376 10.5865538,2.19395802 Z" id="形状结合" fill-rule="nonzero" transform="translate(10.592905, 6.935321) scale(-1, -1) translate(-10.592905, -6.935321) "></path>
                        <rect id="矩形" x="0" y="5" width="1" height="6" rx="0.5"></rect>
                        <rect id="矩形备份-26" x="15.2" y="5" width="1" height="6" rx="0.5"></rect>
                        <rect id="矩形" x="5" y="0" width="6" height="1" rx="0.5"></rect>
                        <rect id="矩形备份-25" x="5" y="15.2" width="6" height="1" rx="0.5"></rect>
                    </g>
                </g>
            </g>
        </g>
    </g>
</svg>