<?xml version="1.0" encoding="UTF-8"?>
<svg width="32px" height="32px" viewBox="0 0 32 32" version="1.1" xmlns="http://www.w3.org/2000/svg" xmlns:xlink="http://www.w3.org/1999/xlink">
    <title>文字</title>
    <g id="页面-1" stroke="none" stroke-width="1" fill="none" fill-rule="evenodd">
        <g id="主页——配置（主体1）" transform="translate(-680.000000, -56.000000)" fill-rule="nonzero">
            <g id="工具栏" transform="translate(376.000000, 48.000000)">
                <g id="文字" transform="translate(304.000000, 8.000000)">
                    <g transform="translate(8.000000, 8.000000)">
                        <rect id="矩形" fill="#000000" opacity="0" x="0" y="0" width="16.0004581" height="16.0004581"></rect>
                        <path d="M5.93445244,16 L10.0911271,16 L10.0783373,15.9785953 C9.25979217,15.122408 8.81215028,14.0521739 8.81215028,12.9605351 L8.81215028,1.55183946 L12.6618705,1.55183946 C13.7617906,1.55183946 14.8361311,1.86220736 15.7058353,2.44013378 L16,2.63277592 L16,0 C16,0 12.802558,0.428093645 8.01918465,0.428093645 C3.23581135,0.428093645 0,0 0,0 L0,2.62207358 L0.204636291,2.48294314 C1.0871303,1.88361204 2.18705036,1.55183946 3.32533973,1.55183946 L7.21342926,1.55183946 L7.21342926,12.9498328 C7.21342926,14.0521739 6.76578737,15.1117057 5.94724221,15.967893 L5.93445244,16 Z" id="路径" fill="#5A5A5A"></path>
                    </g>
                </g>
            </g>
        </g>
    </g>
</svg>