<?xml version="1.0" encoding="UTF-8"?>
<svg width="32px" height="32px" viewBox="0 0 32 32" version="1.1" xmlns="http://www.w3.org/2000/svg" xmlns:xlink="http://www.w3.org/1999/xlink">
    <title>放大</title>
    <g id="视频库" stroke="none" stroke-width="1" fill="none" fill-rule="evenodd">
        <g id="视频库——未选点位（已识别）" transform="translate(-376.000000, -56.000000)" fill="#5A5A5A" fill-rule="nonzero">
            <g id="工具栏" transform="translate(0.000000, 48.000000)">
                <g id="编组-3" transform="translate(296.000000, 8.000000)">
                    <g id="放大" transform="translate(80.000000, 0.000000)">
                        <path d="M10.1353581,10.1367287 C12.2203752,8.0503732 15.3561244,7.42635286 18.0802481,8.55567974 C20.8043718,9.68500662 22.5803264,12.3452484 22.5798949,15.2958006 C22.5815754,16.9508691 22.0177602,18.556778 20.9819754,19.8471371 L23.7554004,22.6234097 C24.0751824,22.9355577 24.0823379,23.4477447 23.771401,23.7687155 C23.6176584,23.9194771 23.4101843,24.0026708 23.194943,23.9999346 C22.9797018,23.9970609 22.7744632,23.9084889 22.6246964,23.7537721 L19.8523381,20.9796343 C18.5610315,22.0230618 16.9508837,22.5912708 15.2911207,22.5892533 C12.3424611,22.589685 9.68392575,20.8125905 8.55532329,18.0867183 C7.42672083,15.3608461 8.05034089,12.2230842 10.1353581,10.1367287 Z M18.1354814,10.3671285 C16.3753848,9.35028401 14.2068565,9.35028401 12.44676,10.3671285 C10.6866634,11.383973 9.60239927,13.2631791 9.6023993,15.296868 C9.6013326,18.4409734 12.1484987,20.9897744 15.2905873,20.9897744 C18.4326759,20.9897744 20.979842,18.4409734 20.979842,15.296868 C20.979842,13.2631791 19.8955779,11.383973 18.1354814,10.3671285 Z M15.2911207,11.9388697 C15.6783335,11.9388697 15.9930105,12.2633553 15.9930105,12.6614905 L15.9930105,14.5945276 L17.9269411,14.5945276 C18.3200755,14.5897807 18.6427631,14.9045554 18.6480316,15.2979354 C18.6415996,15.6910668 18.3187775,16.0050302 17.9258744,16.0002758 L15.9930105,16.0002758 L15.9930105,17.9343803 C15.9930105,18.3325155 15.6783335,18.6580684 15.2911207,18.6580684 C14.9039079,18.6580684 14.5892308,18.3325155 14.5892308,17.9343803 L14.5892308,16.0002758 L12.6563669,16.0002758 C12.2584871,16.0002758 11.9342097,15.6875315 11.9342097,15.2990028 C11.9400606,14.9054523 12.263054,14.5908448 12.6563669,14.595595 L14.5892308,14.595595 L14.5892308,12.6614905 C14.5892308,12.2633553 14.9039079,11.9388697 15.2911207,11.9388697 Z" id="形状结合"></path>
                    </g>
                </g>
            </g>
        </g>
    </g>
</svg>